<svg width="20" height="20" viewBox="0 0 20 20" fill="none" xmlns="http://www.w3.org/2000/svg">
<path d="M13.4314 13.0666L12.9159 13.8398C12.813 13.9942 12.6769 14.1259 12.4976 14.1733C11.9101 14.3285 10.3505 14.3986 7.97615 12.0242C5.60176 9.6498 5.67184 8.09022 5.82706 7.50278C5.87445 7.32344 6.00614 7.18735 6.16048 7.08446L6.93373 6.56896C7.50943 6.18516 7.665 5.40733 7.2812 4.83163L5.82079 2.64102C5.48579 2.13852 4.83998 1.94654 4.28488 2.18444L3.62609 2.46678C3.12563 2.68126 2.71739 3.06619 2.47389 3.55319C2.27045 3.96006 2.11278 4.38852 2.09141 4.84292C2.02409 6.2749 2.33808 9.80287 6.26778 13.7326C10.1975 17.6623 13.7254 17.9762 15.1574 17.9089C15.6118 17.8875 16.0403 17.7299 16.4471 17.5264C16.9341 17.2829 17.3191 16.8747 17.5335 16.3742L17.8159 15.7154C18.0538 15.1603 17.8618 14.5145 17.3593 14.1795L15.1687 12.7191C14.593 12.3353 13.8152 12.4909 13.4314 13.0666Z" fill="#7E7171"/>
</svg>
