<svg width="48" height="48" viewBox="0 0 48 48" fill="none" xmlns="http://www.w3.org/2000/svg">
<g clip-path="url(#clip0_253_25055)">
<circle cx="24" cy="24" r="24" fill="#F2F1F1"/>
<g clip-path="url(#clip1_253_25055)">
<path d="M25.2576 24.2632H24.1989C23.8895 24.2632 23.5927 24.1403 23.3739 23.9215C23.1551 23.7027 23.0322 23.406 23.0322 23.0966V22.9215C23.0322 22.6121 23.1551 22.3154 23.3739 22.0966C23.5927 21.8778 23.8895 21.7549 24.1989 21.7549H24.3739C24.6833 21.7549 24.9801 21.8778 25.1989 22.0966C25.4176 22.3154 25.5406 22.6121 25.5406 22.9215V23.9716C25.5406 24.0474 25.5111 24.1203 25.4582 24.1748C25.4054 24.2292 25.3335 24.2609 25.2576 24.2632ZM24.1989 22.3236C24.0442 22.3236 23.8958 22.3851 23.7864 22.4945C23.677 22.6039 23.6156 22.7523 23.6156 22.907V23.082C23.6156 23.2367 23.677 23.385 23.7864 23.4944C23.8958 23.6038 24.0442 23.6653 24.1989 23.6653H24.966V22.9157C24.966 22.761 24.9045 22.6126 24.7951 22.5032C24.6857 22.3938 24.5374 22.3324 24.3826 22.3324L24.1989 22.3236Z" fill="#E8EFFF"/>
<path d="M26.3133 24.2632H25.2575C25.1801 24.2632 25.1059 24.2325 25.0512 24.1778C24.9965 24.1231 24.9658 24.0489 24.9658 23.9715V22.9157C24.9658 22.6063 25.0887 22.3095 25.3075 22.0907C25.5263 21.8719 25.8231 21.749 26.1325 21.749H26.3075C26.6169 21.749 26.9137 21.8719 27.1324 22.0907C27.3512 22.3095 27.4742 22.6063 27.4742 22.9157V23.0907C27.4749 23.2439 27.4455 23.3958 27.3876 23.5376C27.3297 23.6794 27.2444 23.8085 27.1366 23.9174C27.0288 24.0262 26.9006 24.1128 26.7593 24.1722C26.6181 24.2315 26.4665 24.2624 26.3133 24.2632ZM25.5492 23.6799H26.3133C26.468 23.6799 26.6164 23.6184 26.7258 23.509C26.8352 23.3996 26.8967 23.2512 26.8967 23.0965V22.9215C26.8967 22.7668 26.8352 22.6184 26.7258 22.509C26.6164 22.3996 26.468 22.3382 26.3133 22.3382H26.1383C25.9836 22.3382 25.8352 22.3996 25.7258 22.509C25.6164 22.6184 25.555 22.7668 25.555 22.9215L25.5492 23.6799Z" fill="#E8EFFF"/>
<path d="M29.8099 24.2627H20.7012C20.3387 24.2627 20.0449 24.5565 20.0449 24.9189V31.8052C20.0449 32.1676 20.3387 32.4614 20.7012 32.4614H29.8099C30.1724 32.4614 30.4662 32.1676 30.4662 31.8052V24.9189C30.4662 24.5565 30.1724 24.2627 29.8099 24.2627Z" fill="#4DC8FF"/>
<path d="M30.4662 24.9189V25.896C30.4662 26.0121 30.4201 26.1233 30.338 26.2054C30.256 26.2874 30.1447 26.3335 30.0287 26.3335C29.9126 26.3335 29.8014 26.2874 29.7193 26.2054C29.6373 26.1233 29.5912 26.0121 29.5912 25.896V25.1377H20.9199V25.896C20.9199 26.0121 20.8738 26.1233 20.7918 26.2054C20.7097 26.2874 20.5985 26.3335 20.4824 26.3335C20.3664 26.3335 20.2551 26.2874 20.1731 26.2054C20.091 26.1233 20.0449 26.0121 20.0449 25.896V24.9189C20.0449 24.7449 20.1141 24.578 20.2371 24.4549C20.3602 24.3318 20.5271 24.2627 20.7012 24.2627H29.8099C29.984 24.2627 30.1509 24.3318 30.274 24.4549C30.397 24.578 30.4662 24.7449 30.4662 24.9189Z" fill="#61E6FF"/>
<path d="M30.4662 27.807V31.237L29.1099 32.4591H20.7012C20.5271 32.4591 20.3602 32.3899 20.2371 32.2668C20.1141 32.1438 20.0449 31.9768 20.0449 31.8028V27.2236L25.2045 29.2099C25.3576 29.2689 25.4975 29.3576 25.6162 29.4709C25.7349 29.5841 25.83 29.7197 25.8962 29.8699C25.9623 30.02 25.9981 30.1818 26.0015 30.3458C26.005 30.5098 25.976 30.6729 25.9162 30.8257C25.9162 30.8549 25.6303 31.0182 30.4662 27.807Z" fill="#4DAAFF"/>
<path d="M26.6632 28.7806L25.2545 27.9289L23.8486 28.7806V24.2627H26.6632V28.7806Z" fill="#4D7DD2"/>
<path d="M23.8486 24.2627H26.6632V25.1377H23.8486V24.2627Z" fill="#4DC8FF"/>
<path d="M32.8583 30.2623C32.8597 30.4353 32.8249 30.6067 32.7561 30.7654C32.6872 30.9241 32.5859 31.0667 32.4587 31.1839L26.6516 36.4339C25.973 37.0444 25.1406 37.458 24.2442 37.6302C23.3478 37.8024 22.4215 37.7266 21.565 37.411L17.0704 35.7485C16.662 35.5998 16.5133 35.6231 15.5537 35.6377V29.4806L16.5629 28.9177C16.9962 28.6758 17.4775 28.5323 17.9725 28.4976C18.4675 28.4628 18.9642 28.5375 19.427 28.7164C25.7212 31.1402 25.3625 30.9652 25.6045 31.1869C25.7907 31.3565 25.9209 31.5787 25.9782 31.8239C26.0355 32.0692 26.0171 32.326 25.9254 32.5606C25.9254 32.5898 25.6337 32.7589 30.945 29.2298C31.1315 29.109 31.3472 29.0405 31.5693 29.0317C31.7914 29.0228 32.0118 29.0738 32.2074 29.1794C32.403 29.2849 32.5667 29.4412 32.6812 29.6317C32.7957 29.8222 32.8569 30.04 32.8583 30.2623Z" fill="#FFC7AE"/>
<path d="M32.4587 31.1835L26.6516 36.4335C25.973 37.044 25.1406 37.4576 24.2442 37.6298C23.3478 37.802 22.4215 37.7262 21.565 37.4106L17.0704 35.7481C16.662 35.5994 16.5133 35.6227 15.5537 35.6373V34.386C16.3587 34.386 16.6212 34.3335 17.0704 34.4969L21.565 36.1594C22.4215 36.475 23.3478 36.5508 24.2442 36.3786C25.1406 36.2064 25.973 35.7928 26.6516 35.1823C33.0158 29.4423 32.5608 29.8885 32.7008 29.6406C32.8435 29.8866 32.8974 30.1741 32.8533 30.455C32.8092 30.7359 32.6699 30.9931 32.4587 31.1835Z" fill="#FFA990"/>
<path d="M26.6687 32.0651C26.6565 32.4649 26.4887 32.8441 26.2011 33.1219C25.9134 33.3998 25.5286 33.5543 25.1287 33.5526C24.8137 33.5526 25.152 33.6285 19.6424 31.9339C19.6037 31.9247 19.5672 31.9077 19.5353 31.8839C19.5033 31.8601 19.4766 31.83 19.4568 31.7954C19.4369 31.7609 19.4244 31.7227 19.4198 31.6831C19.4153 31.6435 19.419 31.6034 19.4306 31.5653C19.4421 31.5272 19.4614 31.4919 19.4871 31.4615C19.5129 31.4311 19.5446 31.4063 19.5803 31.3886C19.616 31.371 19.6549 31.3608 19.6947 31.3588C19.7345 31.3567 19.7743 31.3629 19.8116 31.3768L24.8545 32.9285C25.0466 32.9865 25.2521 32.9828 25.442 32.9179C25.632 32.853 25.7968 32.7302 25.9133 32.5668L26.6687 32.0651Z" fill="#FFA990"/>
<path d="M15.5416 29.5423V36.6006C15.5416 36.6989 15.5026 36.7931 15.4331 36.8625C15.3637 36.932 15.2695 36.971 15.1712 36.971H13.9287V29.1689H15.1741C15.2228 29.1693 15.2709 29.1793 15.3157 29.1983C15.3605 29.2172 15.4011 29.2448 15.4352 29.2795C15.4693 29.3142 15.4963 29.3552 15.5146 29.4003C15.5328 29.4454 15.542 29.4936 15.5416 29.5423Z" fill="#C5CCFF"/>
<path d="M15.5416 34.7219V36.5974C15.5416 36.6956 15.5026 36.7898 15.4331 36.8593C15.3637 36.9287 15.2695 36.9678 15.1712 36.9678H13.9287V34.3428H15.1741C15.2232 34.3435 15.2716 34.3539 15.3166 34.3734C15.3616 34.3929 15.4023 34.421 15.4364 34.4562C15.4705 34.4914 15.4974 34.533 15.5155 34.5786C15.5335 34.6242 15.5424 34.6729 15.5416 34.7219Z" fill="#A2A9D2"/>
<path d="M10.2949 29.1689H13.932V36.971H10.2949V29.1689Z" fill="#E8EFFF"/>
<path d="M11.3828 29.1689H12.8411V33.3602H11.3828V29.1689Z" fill="white"/>
<path d="M10.2949 34.3486H13.932V36.9678H10.2949V34.3486Z" fill="#CAD1FF"/>
<path d="M29.2739 18.7498L16.6243 21.5381C16.5837 21.5475 16.5416 21.5487 16.5005 21.5415C16.4594 21.5344 16.4201 21.5191 16.3851 21.4965C16.35 21.474 16.3198 21.4446 16.2963 21.4102C16.2727 21.3757 16.2563 21.3369 16.2481 21.296C15.4927 17.8369 15.7318 18.9452 14.7897 14.7044C14.7807 14.6636 14.7798 14.6214 14.7871 14.5803C14.7944 14.5391 14.8097 14.4998 14.8322 14.4646C14.8547 14.4294 14.8839 14.399 14.9181 14.375C14.9524 14.3511 14.991 14.3342 15.0318 14.3252L27.6902 11.5515C27.7309 11.5424 27.7731 11.5415 27.8143 11.5488C27.8554 11.5561 27.8947 11.5714 27.9299 11.5939C27.9651 11.6164 27.9956 11.6456 28.0195 11.6798C28.0434 11.7141 28.0603 11.7527 28.0693 11.7935C29.026 16.1365 29.3235 17.4985 29.5276 18.3852C29.5413 18.4671 29.5224 18.551 29.475 18.6192C29.4276 18.6873 29.3554 18.7342 29.2739 18.7498Z" fill="#008C72"/>
<path d="M15.8072 15.2098C15.8029 15.1903 15.8026 15.1701 15.8061 15.1504C15.8097 15.1307 15.8171 15.112 15.8279 15.0952C15.8388 15.0783 15.8528 15.0638 15.8693 15.0525C15.8858 15.0411 15.9043 15.0332 15.9239 15.029L27.1881 12.5586C27.2271 12.5508 27.2676 12.5587 27.3009 12.5805C27.3342 12.6023 27.3576 12.6364 27.366 12.6753L28.5093 17.8757C28.518 17.9147 28.511 17.9557 28.4897 17.9895C28.4684 18.0234 28.4345 18.0475 28.3956 18.0565L17.1314 20.5328C17.1119 20.537 17.0917 20.5374 17.072 20.5339C17.0523 20.5303 17.0335 20.5229 17.0167 20.5121C16.9999 20.5012 16.9854 20.4872 16.974 20.4707C16.9627 20.4542 16.9547 20.4357 16.9506 20.4161C16.5306 18.4998 15.7985 15.169 15.8072 15.2098Z" fill="#00A072"/>
<path d="M29.2737 18.75L23.6475 19.9954V15.25L29.2241 17.0525C29.5158 18.3271 29.4458 18.0675 29.5158 18.3883C29.529 18.4681 29.5113 18.5499 29.4663 18.6171C29.4214 18.6843 29.3525 18.7318 29.2737 18.75Z" fill="#007372"/>
<path d="M29.2735 18.7503L27.4797 19.144C27.4025 18.8692 27.3851 18.581 27.4288 18.2988C27.4724 18.0167 27.5762 17.7472 27.7329 17.5086C27.8897 17.27 28.0959 17.0678 28.3375 16.9157C28.5791 16.7636 28.8506 16.6651 29.1335 16.627C29.5039 18.3186 29.4456 18.0415 29.5156 18.377C29.5321 18.4585 29.516 18.5432 29.4707 18.613C29.4255 18.6828 29.3547 18.7321 29.2735 18.7503Z" fill="#005A72"/>
<path d="M18.3396 21.1629L16.6246 21.5391C16.584 21.5485 16.5419 21.5497 16.5008 21.5426C16.4597 21.5354 16.4204 21.5201 16.3854 21.4975C16.3503 21.475 16.3201 21.4456 16.2966 21.4112C16.273 21.3767 16.2566 21.3379 16.2484 21.297L15.8809 19.6258C16.1399 19.5578 16.4101 19.5428 16.6751 19.5816C16.9401 19.6204 17.1946 19.7122 17.4233 19.8516C17.652 19.991 17.8503 20.1751 18.0062 20.3929C18.1622 20.6107 18.2726 20.8577 18.3309 21.1191C18.3348 21.1335 18.3377 21.1481 18.3396 21.1629Z" fill="#006E72"/>
<path d="M15.2302 16.4965C15.1806 16.4965 15.2302 16.6948 14.8015 14.7057C14.7924 14.6649 14.7915 14.6227 14.7988 14.5816C14.8061 14.5404 14.8214 14.5011 14.8439 14.4659C14.8664 14.4307 14.8956 14.4003 14.9298 14.3763C14.9641 14.3524 15.0027 14.3355 15.0435 14.3265L16.709 13.9648C16.7909 14.2282 16.817 14.5058 16.7858 14.7798C16.7545 15.0538 16.6665 15.3184 16.5274 15.5565C16.3883 15.7947 16.2011 16.0013 15.9778 16.1631C15.7544 16.3249 15.4998 16.4385 15.2302 16.4965Z" fill="#006E72"/>
<path d="M28.4454 13.5007C28.1727 13.5935 27.8831 13.6259 27.5966 13.5959C27.3101 13.5659 27.0336 13.4742 26.786 13.3269C26.5384 13.1797 26.3257 12.9806 26.1625 12.7432C25.9993 12.5058 25.8896 12.2359 25.8408 11.952L27.69 11.5466C27.7308 11.5375 27.773 11.5366 27.8141 11.5439C27.8552 11.5512 27.8945 11.5665 27.9297 11.589C27.965 11.6115 27.9954 11.6407 28.0193 11.675C28.0432 11.7092 28.0602 11.7478 28.0692 11.7887L28.4454 13.5007Z" fill="#006E72"/>
<path d="M32.6047 17.4323L31.7297 17.9136C31.358 18.1191 30.9459 18.241 30.5223 18.2708C30.0986 18.3005 29.6735 18.2373 29.2768 18.0857L24.3184 16.1782C24.0561 16.0826 23.8418 15.8879 23.7217 15.6358C23.6016 15.3838 23.5853 15.0947 23.6764 14.8307C23.7674 14.5668 23.9585 14.3492 24.2084 14.2248C24.4584 14.1004 24.7472 14.0792 25.0126 14.1657L29.3322 15.4957L32.6047 17.4323Z" fill="white"/>
<path d="M28.8506 15.3438L29.3464 15.4954" stroke="#302D3D" stroke-width="2" stroke-linecap="round" stroke-linejoin="round"/>
<path d="M32.6045 11.1436H37.7057V18.8581H32.6045V11.1436Z" fill="#E8EFFF"/>
<path d="M23.7265 14.7894C23.6747 14.9204 23.6493 15.0603 23.6517 15.2011C23.6542 15.3419 23.6845 15.4808 23.7409 15.6099C23.7973 15.7389 23.8786 15.8555 23.9803 15.953C24.082 16.0505 24.2019 16.1269 24.3332 16.1778C24.4032 16.204 29.3907 18.1261 29.4665 18.1436C29.8419 18.2622 30.2376 18.3029 30.6293 18.2633C31.0209 18.2237 31.4004 18.1045 31.7445 17.9132L32.6195 17.4319V12.1819L31.7445 12.1965C31.5782 12.1965 31.9224 12.3073 27.1186 10.534C26.4914 10.2977 25.8114 10.2381 25.1526 10.3615C24.4938 10.4849 23.8815 10.7867 23.3824 11.234L21.5332 12.9169L27.6932 11.5519C27.734 11.5429 27.7762 11.542 27.8173 11.5493C27.8584 11.5566 27.8977 11.5719 27.933 11.5944C27.9682 11.6169 27.9986 11.6461 28.0225 11.6803C28.0465 11.7146 28.0634 11.7532 28.0724 11.794L28.8511 15.3436C24.7474 14.0719 24.9311 14.1186 24.7182 14.1186C24.5049 14.1189 24.2965 14.1829 24.1198 14.3024C23.9431 14.4219 23.8062 14.5915 23.7265 14.7894Z" fill="#FFC7AE"/>
<path d="M32.6017 16.4843V17.4322L31.7413 17.9134C31.3693 18.1194 30.9567 18.2416 30.5324 18.2713C30.1082 18.301 29.6826 18.2376 29.2855 18.0855L24.3272 16.178C24.1958 16.1271 24.0759 16.0507 23.9742 15.9533C23.8726 15.8558 23.7912 15.7392 23.7348 15.6101C23.6784 15.4811 23.6481 15.3422 23.6457 15.2013C23.6432 15.0605 23.6686 14.9206 23.7205 14.7897C23.7314 14.7626 23.744 14.7363 23.7584 14.7109C23.8796 14.952 24.0882 15.1377 24.3417 15.2301C24.403 15.2534 29.4022 17.1784 29.4751 17.1959C29.8505 17.3145 30.2461 17.3553 30.6378 17.3156C31.0295 17.276 31.4089 17.1569 31.753 16.9655L32.6017 16.4843Z" fill="#FFA990"/>
<path d="M20.8885 16.6738C20.911 16.8925 20.9896 17.1018 21.1167 17.2813C21.2438 17.4608 21.4151 17.6045 21.614 17.6984C21.8128 17.7923 22.0326 17.8332 22.252 17.8173C22.4713 17.8013 22.6828 17.729 22.8661 17.6073C23.0493 17.4857 23.198 17.3188 23.2978 17.1228C23.3976 16.9268 23.4451 16.7083 23.4357 16.4886C23.4263 16.2688 23.3603 16.0553 23.2442 15.8685C23.128 15.6817 22.9656 15.5281 22.7727 15.4225C22.5684 15.3107 22.3375 15.2568 22.1048 15.2668C21.8721 15.2767 21.6466 15.3501 21.4526 15.4789C21.2586 15.6077 21.1035 15.7872 21.0041 15.9977C20.9047 16.2083 20.8647 16.4421 20.8885 16.6738Z" fill="#006E72"/>
<path d="M34.4248 11.0557H35.8831V15.2469H34.4248V11.0557Z" fill="white"/>
<path d="M32.6045 16.2393H37.7087V18.8584H32.6045V16.2393Z" fill="#CAD1FF"/>
</g>
</g>
<defs>
<clipPath id="clip0_253_25055">
<rect width="48" height="48" fill="white"/>
</clipPath>
<clipPath id="clip1_253_25055">
<rect width="28" height="28" fill="white" transform="translate(10 10)"/>
</clipPath>
</defs>
</svg>
