<svg width="18" height="18" viewBox="0 0 18 18" fill="none" xmlns="http://www.w3.org/2000/svg">
<path d="M8.99984 17.9997C4.03528 17.9997 0 13.9644 0 8.99984C0 4.03528 4.03528 0 8.99984 0C13.9644 0 17.9997 4.03528 17.9997 8.99984C17.9997 13.9644 13.9644 17.9997 8.99984 17.9997ZM8.99984 1.25579C4.73015 1.25579 1.25579 4.73015 1.25579 8.99984C1.25579 13.2695 4.73015 16.7439 8.99984 16.7439C13.2695 16.7439 16.7439 13.2695 16.7439 8.99984C16.7439 4.73015 13.2695 1.25579 8.99984 1.25579Z" fill="white"/>
<path d="M6.63202 11.9965C6.47295 11.9965 6.31388 11.9379 6.1883 11.8123C5.94552 11.5695 5.94552 11.1676 6.1883 10.9249L10.9268 6.18634C11.1696 5.94355 11.5715 5.94355 11.8142 6.18634C12.057 6.42913 12.057 6.83098 11.8142 7.07377L7.07573 11.8123C6.95852 11.9379 6.79108 11.9965 6.63202 11.9965Z" fill="white"/>
<path d="M11.3705 11.9965C11.2115 11.9965 11.0524 11.9379 10.9268 11.8123L6.1883 7.07377C5.94552 6.83098 5.94552 6.42913 6.1883 6.18634C6.43109 5.94355 6.83294 5.94355 7.07573 6.18634L11.8142 10.9249C12.057 11.1676 12.057 11.5695 11.8142 11.8123C11.6887 11.9379 11.5296 11.9965 11.3705 11.9965Z" fill="white"/>
</svg>
