<svg width="16" height="16" viewBox="0 0 16 16" fill="none" xmlns="http://www.w3.org/2000/svg">
<path d="M4.83549 12C4.62312 12 4.41076 11.9218 4.2431 11.7541C3.91897 11.43 3.91897 10.8935 4.2431 10.5693L10.5693 4.2431C10.8935 3.91897 11.43 3.91897 11.7541 4.2431C12.0782 4.56724 12.0782 5.10374 11.7541 5.42787L5.42787 11.7541C5.27139 11.9218 5.04785 12 4.83549 12Z" fill="#7E7171"/>
<path d="M11.1617 12C10.9494 12 10.737 11.9218 10.5693 11.7541L4.2431 5.42787C3.91897 5.10374 3.91897 4.56724 4.2431 4.2431C4.56724 3.91897 5.10374 3.91897 5.42787 4.2431L11.7541 10.5693C12.0782 10.8935 12.0782 11.43 11.7541 11.7541C11.5864 11.9218 11.3741 12 11.1617 12Z" fill="#7E7171"/>
</svg>
