<svg width="22" height="22" viewBox="0 0 22 22" fill="none" xmlns="http://www.w3.org/2000/svg">
<path d="M11 21.9694C10.3553 21.9694 9.75162 21.7238 9.30139 21.2634L7.74605 19.708C7.62326 19.5852 7.29582 19.4522 7.13209 19.4522H4.92186C3.59163 19.4522 2.5172 18.3777 2.5172 17.0474V14.8373C2.5172 14.6736 2.38418 14.3462 2.26139 14.2234L0.706049 12.668C0.255816 12.2178 0 11.614 0 10.9694C0 10.3247 0.245584 9.72095 0.706049 9.27072L2.26139 7.71535C2.38418 7.59256 2.5172 7.26515 2.5172 7.10143V4.89128C2.5172 3.56105 3.59163 2.48653 4.92186 2.48653H7.13209C7.29582 2.48653 7.62326 2.35351 7.74605 2.23072L9.30139 0.675349C10.2019 -0.225116 11.7981 -0.225116 12.6986 0.675349L14.2539 2.23072C14.3767 2.35351 14.7042 2.48653 14.8679 2.48653H17.0781C18.4084 2.48653 19.4828 3.56105 19.4828 4.89128V7.10143C19.4828 7.26515 19.6158 7.59256 19.7386 7.71535L21.294 9.27072C21.7442 9.72095 22 10.3247 22 10.9694C22 11.614 21.7544 12.2178 21.294 12.668L19.7386 14.2234C19.6158 14.3462 19.4828 14.6736 19.4828 14.8373V17.0474C19.4828 18.3777 18.4084 19.4522 17.0781 19.4522H14.8679C14.7042 19.4522 14.3767 19.5852 14.2539 19.708L12.6986 21.2634C12.2484 21.7238 11.6447 21.9694 11 21.9694ZM3.34604 13.1387C3.75534 13.548 4.05208 14.2643 4.05208 14.8373V17.0474C4.05208 17.5284 4.44093 17.9173 4.92186 17.9173H7.13209C7.70512 17.9173 8.4214 18.214 8.8307 18.6233L10.386 20.1787C10.7135 20.5061 11.2865 20.5061 11.614 20.1787L13.1693 18.6233C13.5786 18.214 14.2949 17.9173 14.8679 17.9173H17.0781C17.5591 17.9173 17.9479 17.5284 17.9479 17.0474V14.8373C17.9479 14.2643 18.2447 13.548 18.654 13.1387L20.2093 11.5833C20.373 11.4196 20.4651 11.2047 20.4651 10.9694C20.4651 10.734 20.373 10.5192 20.2093 10.3554L18.654 8.80006C18.2447 8.39076 17.9479 7.67445 17.9479 7.10143V4.89128C17.9479 4.41035 17.5591 4.02142 17.0781 4.02142H14.8679C14.2949 4.02142 13.5786 3.72473 13.1693 3.31543L11.614 1.76006C11.2865 1.43262 10.7135 1.43262 10.386 1.76006L8.8307 3.31543C8.4214 3.72473 7.70512 4.02142 7.13209 4.02142H4.92186C4.44093 4.02142 4.05208 4.41035 4.05208 4.89128V7.10143C4.05208 7.67445 3.75534 8.39076 3.34604 8.80006L1.7907 10.3554C1.62698 10.5192 1.53488 10.734 1.53488 10.9694C1.53488 11.2047 1.62698 11.4196 1.7907 11.5833L3.34604 13.1387Z" fill="#A89E9E"/>
<path d="M14.07 15.0625C13.497 15.0625 13.0365 14.6021 13.0365 14.0393C13.0365 13.4765 13.497 13.016 14.0598 13.016C14.6226 13.016 15.083 13.4765 15.083 14.0393C15.083 14.6021 14.6328 15.0625 14.07 15.0625Z" fill="#A89E9E"/>
<path d="M7.94048 8.92301C7.36745 8.92301 6.90698 8.46255 6.90698 7.89975C6.90698 7.33696 7.36744 6.8765 7.93023 6.8765C8.49302 6.8765 8.95349 7.33696 8.95349 7.89975C8.95349 8.46255 8.50327 8.92301 7.94048 8.92301Z" fill="#A89E9E"/>
<path d="M7.92967 14.8067C7.73525 14.8067 7.54084 14.7351 7.38735 14.5816C7.0906 14.2849 7.0906 13.7936 7.38735 13.4969L13.5269 7.35737C13.8236 7.06063 14.3148 7.06063 14.6115 7.35737C14.9083 7.65411 14.9083 8.14534 14.6115 8.44208L8.472 14.5816C8.31851 14.7351 8.12409 14.8067 7.92967 14.8067Z" fill="#A89E9E"/>
</svg>
