<svg width="17" height="18" viewBox="0 0 17 18" fill="none" xmlns="http://www.w3.org/2000/svg">
<path d="M2.77721 15.2737C2.26229 15.2737 1.78113 15.0964 1.43503 14.7672C0.996076 14.3536 0.78504 13.7289 0.861013 13.0536L1.17335 10.3186C1.23244 9.80368 1.54477 9.11992 1.90775 8.7485L8.83815 1.41291C10.5686 -0.41888 12.3751 -0.469529 14.2069 1.26096C16.0387 2.99145 16.0893 4.79791 14.3588 6.6297L7.42843 13.9653C7.0739 14.3452 6.41546 14.6997 5.90054 14.7841L3.1824 15.2484C3.0389 15.2568 2.91228 15.2737 2.77721 15.2737ZM11.5478 1.25252C10.8979 1.25252 10.3323 1.65771 9.75827 2.26549L2.82786 9.60952C2.65903 9.78679 2.46488 10.2089 2.43112 10.4537L2.11878 13.1887C2.08502 13.4673 2.15255 13.6952 2.3045 13.8387C2.45644 13.9822 2.68436 14.0328 2.96293 13.9906L5.68106 13.5263C5.92586 13.4841 6.33105 13.2647 6.49988 13.0874L13.4303 5.7518C14.477 4.63753 14.8569 3.60768 13.329 2.17263C12.6537 1.52265 12.0712 1.25252 11.5478 1.25252Z" fill="#774000"/>
<path d="M12.7378 8.0395C12.7209 8.0395 12.6956 8.0395 12.6787 8.0395C10.045 7.77781 7.9262 5.7772 7.52101 3.16036C7.47036 2.81426 7.70672 2.49349 8.05282 2.4344C8.39892 2.38375 8.71969 2.62011 8.77878 2.96621C9.09955 5.00903 10.7541 6.57913 12.8138 6.78173C13.1599 6.81549 13.4131 7.12782 13.3794 7.47392C13.3371 7.7947 13.0586 8.0395 12.7378 8.0395Z" fill="#774000"/>
<path d="M15.8277 18H0.633106C0.287008 18 0 17.713 0 17.3669C0 17.0208 0.287008 16.7338 0.633106 16.7338H15.8277C16.1738 16.7338 16.4608 17.0208 16.4608 17.3669C16.4608 17.713 16.1738 18 15.8277 18Z" fill="#774000"/>
</svg>
