<svg width="18" height="16" viewBox="0 0 18 16" fill="none" xmlns="http://www.w3.org/2000/svg">
<path d="M13.1865 15.4889H4.81413C1.7582 15.4889 0 13.7307 0 10.6748V4.81413C0 1.7582 1.7582 0 4.81413 0H13.1865C16.2425 0 18.0007 1.7582 18.0007 4.81413V10.6748C18.0007 13.7307 16.2425 15.4889 13.1865 15.4889ZM4.81413 1.25586C2.41962 1.25586 1.25586 2.41962 1.25586 4.81413V10.6748C1.25586 13.0693 2.41962 14.2331 4.81413 14.2331H13.1865C15.581 14.2331 16.7448 13.0693 16.7448 10.6748V4.81413C16.7448 2.41962 15.581 1.25586 13.1865 1.25586H4.81413Z" fill="#A89E9E"/>
<path d="M8.99998 8.47251C8.2967 8.47251 7.58505 8.25483 7.04084 7.8111L4.42028 5.718C4.15236 5.50031 4.10213 5.10681 4.31981 4.83889C4.53749 4.57098 4.931 4.52075 5.19891 4.73843L7.81947 6.83153C8.45577 7.34224 9.53581 7.34224 10.1721 6.83153L12.7927 4.73843C13.0606 4.52075 13.4625 4.5626 13.6718 4.83889C13.8895 5.10681 13.8476 5.50869 13.5713 5.718L10.9507 7.8111C10.4149 8.25483 9.70326 8.47251 8.99998 8.47251Z" fill="#A89E9E"/>
</svg>
