<svg width="22" height="22" viewBox="0 0 22 22" fill="none" xmlns="http://www.w3.org/2000/svg">
<path d="M8.40973 14.3552C8.21529 14.3552 8.02084 14.2835 7.86733 14.13C7.02815 13.2908 6.56762 12.1753 6.56762 10.9984C6.56762 8.55251 8.55301 6.56712 10.9989 6.56712C12.1758 6.56712 13.2913 7.02765 14.1305 7.86683C14.2738 8.01011 14.3557 8.20455 14.3557 8.40923C14.3557 8.61391 14.2738 8.80835 14.1305 8.95163L8.95213 14.13C8.79862 14.2835 8.60418 14.3552 8.40973 14.3552ZM10.9989 8.10221C9.40242 8.10221 8.10271 9.40192 8.10271 10.9984C8.10271 11.5101 8.23575 12.0013 8.48137 12.4312L12.4317 8.48087C12.0018 8.23525 11.5106 8.10221 10.9989 8.10221Z" fill="#A89E9E"/>
<path d="M4.44936 17.6613C4.27538 17.6613 4.09117 17.5999 3.9479 17.4771C2.85286 16.5458 1.8704 15.3996 1.03122 14.0692C-0.0535783 12.3806 -0.0535783 9.62763 1.03122 7.92879C3.52831 4.01942 7.16136 1.76796 10.9991 1.76796C13.2506 1.76796 15.4713 2.54574 17.4158 4.00919C17.7535 4.26504 17.8251 4.74604 17.5693 5.08376C17.3134 5.42148 16.8324 5.49311 16.4947 5.23727C14.8164 3.96825 12.9128 3.30305 10.9991 3.30305C7.69352 3.30305 4.53123 5.28844 2.3207 8.75775C1.55315 9.95512 1.55315 12.0428 2.3207 13.2402C3.08824 14.4376 3.96836 15.4712 4.94059 16.3104C5.25784 16.5867 5.29878 17.0677 5.02246 17.3952C4.87919 17.5692 4.66427 17.6613 4.44936 17.6613Z" fill="#A89E9E"/>
<path d="M10.9991 20.23C9.63795 20.23 8.30753 19.9537 7.02829 19.4113C6.6394 19.2476 6.45519 18.7973 6.61893 18.4084C6.78268 18.0195 7.23297 17.8353 7.62186 17.999C8.70666 18.4596 9.84263 18.6949 10.9888 18.6949C14.2944 18.6949 17.4567 16.7095 19.6672 13.2402C20.4348 12.0429 20.4348 9.95514 19.6672 8.75776C19.35 8.2563 19.002 7.7753 18.6336 7.32501C18.3675 6.99752 18.4187 6.51653 18.7462 6.24021C19.0737 5.97413 19.5546 6.01506 19.831 6.35278C20.2301 6.84401 20.619 7.37618 20.9669 7.92881C22.0517 9.61742 22.0517 12.3703 20.9669 14.0692C18.4698 17.9786 14.8368 20.23 10.9991 20.23Z" fill="#A89E9E"/>
<path d="M11.7052 15.3688C11.347 15.3688 11.0196 15.1129 10.9479 14.7445C10.866 14.3249 11.1424 13.9258 11.562 13.8541C12.6877 13.6494 13.6292 12.7079 13.8339 11.5822C13.9158 11.1626 14.3149 10.8965 14.7345 10.9682C15.1541 11.05 15.4304 11.4491 15.3485 11.8687C15.021 13.6392 13.6087 15.0413 11.8485 15.3688C11.7973 15.3585 11.7564 15.3688 11.7052 15.3688Z" fill="#A89E9E"/>
<path d="M0.764988 21.9997C0.570543 21.9997 0.376098 21.9281 0.222588 21.7746C-0.0741961 21.4778 -0.0741961 20.9866 0.222588 20.6898L7.86735 13.045C8.16414 12.7482 8.65537 12.7482 8.95215 13.045C9.24894 13.3418 9.24894 13.833 8.95215 14.1298L1.30739 21.7746C1.15388 21.9281 0.959433 21.9997 0.764988 21.9997Z" fill="#A89E9E"/>
<path d="M13.5882 9.1773C13.3937 9.1773 13.1993 9.10566 13.0458 8.95215C12.749 8.65537 12.749 8.16414 13.0458 7.86735L20.6905 0.222588C20.9873 -0.0741961 21.4785 -0.0741961 21.7753 0.222588C22.0721 0.519373 22.0721 1.0106 21.7753 1.30739L14.1306 8.95215C13.9771 9.10566 13.7826 9.1773 13.5882 9.1773Z" fill="#A89E9E"/>
</svg>
