<svg width="24" height="24" viewBox="0 0 24 24" fill="none" xmlns="http://www.w3.org/2000/svg">
<path d="M19.4773 12.1688L17.1992 11.339C17.1289 11.3109 17.0445 11.2969 16.9602 11.2969H2.36328C1.96948 11.2969 1.66016 11.6062 1.66016 12V21.8906C1.66016 23.0578 2.6023 24 3.76954 24H17.8321C18.9993 24 19.9414 23.0578 19.9414 21.8906V12.8296C19.9414 12.5344 19.7586 12.2672 19.4773 12.1688Z" fill="#FC1A40"/>
<path d="M19.9414 12.8296V21.8906C19.9414 23.0578 18.9993 24 17.832 24H10.8008V11.2969H16.9602C17.0445 11.2969 17.1289 11.3109 17.1992 11.339L19.4773 12.1688C19.7586 12.2672 19.9414 12.5344 19.9414 12.8296Z" fill="#C60034"/>
<path d="M19.6889 4.58381C19.4499 3.6135 18.7327 2.85417 17.7623 2.54475C16.8061 2.24939 15.7795 2.46037 15.0342 3.13533L13.4029 4.56975L13.0795 2.41823C12.9248 1.43385 12.292 0.604118 11.3499 0.210414C11.1671 0.140054 10.9843 0.0838041 10.8014 0.055679C10.028 -0.0990088 9.22644 0.0697415 8.57952 0.547914C7.7217 1.16667 7.28581 2.20729 7.42639 3.24787C7.58112 4.2885 8.28425 5.17444 9.28264 5.526L10.8014 6.07444L12.6718 6.7635C12.6858 6.7635 12.6858 6.7635 12.6858 6.7635L15.9343 7.95877C16.2577 8.07132 16.5952 8.12762 16.9186 8.12762C17.6078 8.12762 18.2827 7.8744 18.8171 7.39632C19.6045 6.69319 19.942 5.61033 19.6889 4.58381Z" fill="#FE9923"/>
<path d="M18.8164 7.39635C18.282 7.87443 17.607 8.12765 16.9179 8.12765C16.5945 8.12765 16.257 8.07135 15.9336 7.95881L12.6852 6.76354C12.6852 6.76354 12.6852 6.76354 12.6711 6.76354L10.8008 6.07447V0.0556641C10.9836 0.083836 11.1664 0.140039 11.3492 0.210399C12.2914 0.604103 12.9242 1.43384 13.0789 2.41822L13.4023 4.56974L15.0336 3.13531C15.7788 2.46036 16.8054 2.24937 17.7617 2.54473C18.732 2.85415 19.4492 3.61348 19.6883 4.5838C19.9414 5.61036 19.6039 6.69322 18.8164 7.39635Z" fill="#FE8821"/>
<path d="M22.3478 10.9733L21.3916 13.6171C21.279 13.8983 21.0118 14.0671 20.7306 14.0671C20.6462 14.0671 20.5618 14.053 20.4916 14.0249L13.2212 11.3812L12.5603 9.20149L10.8025 9.5952L9.25566 9.94676L1.98528 7.30301C1.61966 7.16243 1.43689 6.75457 1.56341 6.403L2.53372 3.75934C2.71654 3.22497 3.11033 2.803 3.61658 2.56398C4.12284 2.32496 4.69935 2.29679 5.23373 2.49367L10.8025 4.51867L11.1823 4.65925C11.1823 4.65925 12.701 7.41555 12.7432 7.41555C12.7714 7.41555 13.376 7.07805 13.9667 6.75457C14.5571 6.43113 15.1478 6.09367 15.1478 6.09367L21.0821 8.25926C21.6165 8.45613 22.0384 8.84993 22.2774 9.35618C22.5166 9.86239 22.5447 10.439 22.3478 10.9733Z" fill="#FF3E75"/>
<path d="M22.3461 10.9732L21.3899 13.617C21.2773 13.8982 21.0101 14.067 20.7289 14.067C20.6445 14.067 20.5601 14.0529 20.4899 14.0248L13.2195 11.3811L12.5586 9.20138L10.8008 9.59508V4.51855L11.1805 4.65913C11.1805 4.65913 12.6992 7.41544 12.7415 7.41544C12.7696 7.41544 13.3743 7.07793 13.9649 6.75445C14.5554 6.43101 15.1461 6.09356 15.1461 6.09356L21.0804 8.25914C21.6148 8.45602 22.0367 8.84981 22.2757 9.35606C22.5149 9.86227 22.5429 10.4389 22.3461 10.9732Z" fill="#FC1A40"/>
<path d="M8.69141 11.2969V24H12.9102V11.2969H8.69141Z" fill="#FCBF29"/>
<path d="M11.1805 4.65918L10.8007 5.69981L9.25391 9.94674L10.8007 10.5093L12.5586 11.1421L13.2194 11.3811L15.1461 6.0936L11.1805 4.65918Z" fill="#FCBF29"/>
<path d="M12.9102 11.2969H10.8008V24H12.9102V11.2969Z" fill="#FE9923"/>
<path d="M15.1461 6.0936L13.2195 11.3811L12.5586 11.1421L10.8008 10.5092V5.69981L11.1805 4.65918L15.1461 6.0936Z" fill="#FE9923"/>
</svg>
