<svg width="32" height="32" viewBox="0 0 32 32" fill="none" xmlns="http://www.w3.org/2000/svg">
<g clip-path="url(#clip0_226_9477)">
<path d="M7.09188 19.3379L5.978 23.4961L1.90681 23.5822C0.690125 21.3255 0 18.7436 0 15.9999C0 13.3467 0.64525 10.8447 1.789 8.6416H1.78988L5.41437 9.3061L7.00212 12.9089C6.66981 13.8777 6.48869 14.9177 6.48869 15.9999C6.48881 17.1744 6.70156 18.2997 7.09188 19.3379Z" fill="#FBBB00"/>
<path d="M31.7205 13.0107C31.9042 13.9786 32.0001 14.9782 32.0001 15.9997C32.0001 17.1452 31.8796 18.2626 31.6502 19.3404C30.8713 23.0081 28.8361 26.2107 26.0168 28.4771L26.0159 28.4762L21.4507 28.2433L20.8046 24.2099C22.6753 23.1127 24.1373 21.3958 24.9074 19.3404H16.3518V13.0107H25.0322H31.7205Z" fill="#518EF8"/>
<path d="M26.0157 28.4763L26.0166 28.4772C23.2747 30.6811 19.7915 31.9998 15.9999 31.9998C9.90674 31.9998 4.60918 28.5941 1.90674 23.5823L7.0918 19.3379C8.44299 22.944 11.9217 25.5111 15.9999 25.5111C17.7529 25.5111 19.3951 25.0372 20.8043 24.21L26.0157 28.4763Z" fill="#28B446"/>
<path d="M26.2128 3.6835L21.0295 7.927C19.5711 7.01538 17.8471 6.48875 16.0001 6.48875C11.8295 6.48875 8.28575 9.17356 7.00225 12.909L1.78994 8.64175H1.78906C4.45194 3.50769 9.81631 0 16.0001 0C19.8822 0 23.4418 1.38287 26.2128 3.6835Z" fill="#F14336"/>
</g>
<defs>
<clipPath id="clip0_226_9477">
<rect width="32" height="32" fill="white"/>
</clipPath>
</defs>
</svg>
