<svg width="48" height="48" viewBox="0 0 48 48" fill="none" xmlns="http://www.w3.org/2000/svg">
<g clip-path="url(#clip0_253_25042)">
<circle cx="24" cy="24" r="24" fill="#F2F1F1"/>
<g clip-path="url(#clip1_253_25042)">
<path d="M17.3189 26.5036L16.4835 29.6223L13.4301 29.6869C12.5176 27.9944 12 26.0579 12 24.0001C12 22.0102 12.4839 20.1337 13.3418 18.4814H13.3424L16.0608 18.9798L17.2516 21.6819C17.0024 22.4085 16.8665 23.1885 16.8665 24.0001C16.8666 24.881 17.0262 25.725 17.3189 26.5036Z" fill="#FBBB00"/>
<path d="M35.7902 21.7578C35.928 22.4837 35.9999 23.2334 35.9999 23.9996C35.9999 24.8587 35.9095 25.6967 35.7375 26.5051C35.1533 29.2558 33.6269 31.6578 31.5124 33.3576L31.5118 33.3569L28.0878 33.1822L27.6032 30.1572C29.0063 29.3343 30.1028 28.0466 30.6804 26.5051H24.2637V21.7578H30.774H35.7902Z" fill="#518EF8"/>
<path d="M31.5114 33.3577L31.5121 33.3584C29.4556 35.0113 26.8433 36.0004 23.9996 36.0004C19.4297 36.0004 15.4565 33.4461 13.4297 29.6872L17.3185 26.5039C18.3319 29.2085 20.9409 31.1338 23.9996 31.1338C25.3143 31.1338 26.546 30.7784 27.6029 30.158L31.5114 33.3577Z" fill="#28B446"/>
<path d="M31.6596 14.7626L27.7721 17.9453C26.6783 17.2615 25.3853 16.8666 24 16.8666C20.8721 16.8666 18.2143 18.8802 17.2517 21.6818L13.3425 18.4813H13.3418C15.339 14.6308 19.3622 12 24 12C26.9117 12 29.5814 13.0372 31.6596 14.7626Z" fill="#F14336"/>
</g>
</g>
<defs>
<clipPath id="clip0_253_25042">
<rect width="48" height="48" fill="white"/>
</clipPath>
<clipPath id="clip1_253_25042">
<rect width="24" height="24" fill="white" transform="translate(12 12)"/>
</clipPath>
</defs>
</svg>
