<svg width="18" height="17" viewBox="0 0 18 17" fill="none" xmlns="http://www.w3.org/2000/svg">
<path d="M9.00033 16.1587C8.74078 16.1587 8.48961 16.1252 8.2803 16.0499C5.08205 14.9531 0 11.0599 0 5.3081C0 2.37776 2.36939 0 5.28298 0C6.69792 0 8.02076 0.552578 9.00033 1.54052C9.9799 0.552578 11.3027 0 12.7177 0C15.6313 0 18.0007 2.38613 18.0007 5.3081C18.0007 11.0683 12.9186 14.9531 9.72035 16.0499C9.51104 16.1252 9.25987 16.1587 9.00033 16.1587ZM5.28298 1.25586C3.0643 1.25586 1.25586 3.07267 1.25586 5.3081C1.25586 11.0264 6.75652 14.208 8.69055 14.8694C8.84125 14.9196 9.16778 14.9196 9.31848 14.8694C11.2441 14.208 16.7532 11.0348 16.7532 5.3081C16.7532 3.07267 14.9447 1.25586 12.726 1.25586C11.4534 1.25586 10.2729 1.8503 9.51104 2.8801C9.27662 3.19826 8.74078 3.19826 8.50636 2.8801C7.72772 1.84193 6.55559 1.25586 5.28298 1.25586Z" fill="#774000"/>
</svg>
