<svg width="20" height="20" viewBox="0 0 20 20" fill="none" xmlns="http://www.w3.org/2000/svg">
<g clip-path="url(#clip0_253_26371)">
<path d="M10 0C4.47301 0 0 4.4725 0 10C0 15.5269 4.4725 20 10 20C15.527 20 20 15.5275 20 10C20 4.47309 15.5275 0 10 0ZM10 18.6046C5.25539 18.6046 1.39535 14.7446 1.39535 10C1.39535 5.25535 5.25539 1.39535 10 1.39535C14.7446 1.39535 18.6046 5.25535 18.6046 10C18.6046 14.7446 14.7446 18.6046 10 18.6046Z" fill="#774000"/>
<path d="M9.99988 8.33594C9.40754 8.33594 8.98633 8.58609 8.98633 8.95465V13.9697C8.98633 14.2857 9.40754 14.6015 9.99988 14.6015C10.5659 14.6015 11.0266 14.2857 11.0266 13.9697V8.95457C11.0266 8.58605 10.5659 8.33594 9.99988 8.33594Z" fill="#774000"/>
<path d="M10.0002 5.24268C9.39473 5.24268 8.9209 5.67705 8.9209 6.17725C8.9209 6.67748 9.39477 7.12502 10.0002 7.12502C10.5926 7.12502 11.0665 6.67748 11.0665 6.17725C11.0665 5.67705 10.5925 5.24268 10.0002 5.24268Z" fill="#774000"/>
</g>
<defs>
<clipPath id="clip0_253_26371">
<rect width="20" height="20" fill="white"/>
</clipPath>
</defs>
</svg>
