<svg xmlns="http://www.w3.org/2000/svg" width="16" height="18" viewBox="0 0 16 18" fill="none">
<path d="M7.84763 10.811C6.06518 10.811 4.6091 9.36333 4.6091 7.57252C4.6091 5.78171 6.06518 4.34236 7.84763 4.34236C9.63007 4.34236 11.0862 5.79007 11.0862 7.58089C11.0862 9.3717 9.63007 10.811 7.84763 10.811ZM7.84763 5.5976C6.75975 5.5976 5.86434 6.48464 5.86434 7.58089C5.86434 8.67713 6.75138 9.56417 7.84763 9.56417C8.94387 9.56417 9.83091 8.67713 9.83091 7.58089C9.83091 6.48464 8.93551 5.5976 7.84763 5.5976Z" fill="#774000"/>
<path d="M7.84665 18.0002C6.60814 18.0002 5.36126 17.5316 4.39054 16.6027C1.9219 14.2261 -0.806167 10.4353 0.223133 5.92475C1.15201 1.83266 4.72527 0 7.84665 0C7.84665 0 7.84665 0 7.85502 0C10.9764 0 14.5496 1.83266 15.4785 5.93312C16.4995 10.4436 13.7714 14.2261 11.3028 16.6027C10.332 17.5316 9.08515 18.0002 7.84665 18.0002ZM7.84665 1.25524C5.41147 1.25524 2.28173 2.55233 1.45327 6.2009C0.549496 10.1424 3.02651 13.5399 5.26921 15.6905C6.71693 17.0881 8.98473 17.0881 10.4324 15.6905C12.6668 13.5399 15.1438 10.1424 14.2568 6.2009C13.4199 2.55233 10.2818 1.25524 7.84665 1.25524Z" fill="#774000"/>
</svg>