<svg width="20" height="20" viewBox="0 0 20 20" fill="none" xmlns="http://www.w3.org/2000/svg">
<path fill-rule="evenodd" clip-rule="evenodd" d="M10.9747 18.541C13.0904 17.0974 17.9173 13.3046 17.9173 8.74967C17.9173 4.37742 14.3729 0.833008 10.0007 0.833008C5.6284 0.833008 2.08398 4.37742 2.08398 8.74967C2.08398 13.3046 6.9109 17.0974 9.02661 18.541C9.61824 18.9447 10.3831 18.9447 10.9747 18.541ZM10.0007 11.2497C11.3814 11.2497 12.5007 10.1304 12.5007 8.74967C12.5007 7.36896 11.3814 6.24967 10.0007 6.24967C8.61994 6.24967 7.50065 7.36896 7.50065 8.74967C7.50065 10.1304 8.61994 11.2497 10.0007 11.2497Z" fill="#7E7171"/>
</svg>
