<svg width="15" height="15" viewBox="0 0 15 15" fill="none" xmlns="http://www.w3.org/2000/svg">
<path d="M12.2032 10.25C12.0425 10.25 11.8819 10.1908 11.755 10.064C11.5098 9.81871 11.5098 9.41279 11.755 9.16755L13.4717 7.45085L11.755 5.73414C11.5098 5.4889 11.5098 5.08298 11.755 4.83774C12.0003 4.59249 12.4062 4.59249 12.6514 4.83774L14.8163 7.00264C15.0616 7.24789 15.0616 7.65381 14.8163 7.89905L12.6514 10.064C12.5246 10.1908 12.3639 10.25 12.2032 10.25Z" fill="#7E7171"/>
<path d="M14.3087 8.0847H5.70825C5.36152 8.0847 5.074 7.79717 5.074 7.45045C5.074 7.10373 5.36152 6.8162 5.70825 6.8162H14.3087C14.6554 6.8162 14.9429 7.10373 14.9429 7.45045C14.9429 7.79717 14.6554 8.0847 14.3087 8.0847Z" fill="#7E7171"/>
<path d="M7.39958 14.7992C3.0444 14.7992 0 11.7548 0 7.39958C0 3.0444 3.0444 0 7.39958 0C7.7463 0 8.03383 0.287526 8.03383 0.634249C8.03383 0.980972 7.7463 1.2685 7.39958 1.2685C3.78858 1.2685 1.2685 3.78858 1.2685 7.39958C1.2685 11.0106 3.78858 13.5307 7.39958 13.5307C7.7463 13.5307 8.03383 13.8182 8.03383 14.1649C8.03383 14.5116 7.7463 14.7992 7.39958 14.7992Z" fill="#7E7171"/>
</svg>
