<svg width="48" height="48" viewBox="0 0 48 48" fill="none" xmlns="http://www.w3.org/2000/svg">
<g clip-path="url(#clip0_253_24773)">
<circle cx="24" cy="24" r="24" fill="#F2F1F1"/>
<path d="M40.9174 24.175C40.9174 29.7739 36.3952 34.35 30.7424 34.35C25.1434 34.35 20.5674 29.7739 20.5674 24.175C20.5674 18.5761 25.0896 14 30.6885 14C36.3952 14 40.9174 18.5761 40.9174 24.175Z" fill="#FFB600"/>
<path d="M30.7424 14C36.3413 14 40.9174 18.5761 40.9174 24.175C40.9174 29.7739 36.3952 34.35 30.7424 34.35C25.1434 34.35 20.5674 29.7739 20.5674 24.175" fill="#F7981D"/>
<path d="M30.7412 14C36.3402 14 40.9162 18.5761 40.9162 24.175C40.9162 29.7739 36.394 34.35 30.7412 34.35" fill="#FF8500"/>
<path d="M17.0673 14C11.5222 14.0538 7 18.5761 7 24.175C7 29.7739 11.5222 34.35 17.175 34.35C19.813 34.35 22.1817 33.3271 24.0122 31.712C24.389 31.389 24.712 31.0122 25.035 30.6353H22.9354C22.6663 30.3123 22.3971 29.9354 22.1817 29.6124H25.7887C26.0041 29.2894 26.2194 28.9126 26.3809 28.5357H21.5895C21.428 28.2127 21.2665 27.8358 21.1589 27.459H26.7578C27.0808 26.4361 27.2962 25.3594 27.2962 24.2288C27.2962 23.4751 27.1885 22.7753 27.0808 22.0754H20.8358C20.8897 21.6985 20.9973 21.3755 21.105 20.9987H26.704C26.5963 20.6218 26.4348 20.245 26.2733 19.922H21.5357C21.6972 19.5451 21.9126 19.2221 22.1279 18.8452H25.7349C25.5196 18.4684 25.2504 18.0915 24.9274 17.7685H22.9354C23.2585 17.3917 23.5815 17.0687 23.9583 16.7456C22.1817 15.0767 19.7591 14.1077 17.1212 14.1077C17.1212 14 17.1212 14 17.0673 14Z" fill="#FF5050"/>
<path d="M7 24.1757C7 29.7747 11.5222 34.3507 17.175 34.3507C19.813 34.3507 22.1817 33.3278 24.0122 31.7128C24.389 31.3897 24.712 31.0129 25.035 30.636H22.9354C22.6663 30.313 22.3971 29.9362 22.1817 29.6132H25.7887C26.0041 29.2901 26.2194 28.9133 26.3809 28.5364H21.5895C21.428 28.2134 21.2665 27.8366 21.1589 27.4597H26.7578C27.0808 26.4368 27.2962 25.3601 27.2962 24.2296C27.2962 23.4759 27.1885 22.776 27.0808 22.0761H20.8358C20.8897 21.6993 20.9973 21.3763 21.105 20.9994H26.704C26.5963 20.6226 26.4348 20.2457 26.2733 19.9227H21.5357C21.6972 19.5458 21.9126 19.2228 22.1279 18.846H25.7349C25.5196 18.4691 25.2504 18.0923 24.9274 17.7692H22.9354C23.2585 17.3924 23.5815 17.0694 23.9583 16.7464C22.1817 15.0774 19.7591 14.1084 17.1212 14.1084H17.0673" fill="#E52836"/>
<path d="M17.176 34.3507C19.814 34.3507 22.1828 33.3278 24.0132 31.7128C24.39 31.3897 24.7131 31.0129 25.0361 30.636H22.9365C22.6673 30.313 22.3981 29.9362 22.1828 29.6132H25.7898C26.0051 29.2901 26.2205 28.9133 26.382 28.5364H21.5906C21.4291 28.2134 21.2676 27.8366 21.1599 27.4597H26.7588C27.0818 26.4368 27.2972 25.3601 27.2972 24.2296C27.2972 23.4759 27.1895 22.776 27.0818 22.0761H20.8369C20.8907 21.6993 20.9984 21.3763 21.1061 20.9994H26.705C26.5973 20.6226 26.4358 20.2457 26.2743 19.9227H21.5367C21.6983 19.5458 21.9136 19.2228 22.1289 18.846H25.7359C25.5206 18.4691 25.2514 18.0923 24.9284 17.7692H22.9365C23.2595 17.3924 23.5825 17.0694 23.9594 16.7464C22.1828 15.0774 19.7602 14.1084 17.1222 14.1084H17.0684" fill="#CB2026"/>
<path d="M20.781 26.759L20.9425 25.8438C20.8886 25.8438 20.781 25.8977 20.6733 25.8977C20.2964 25.8977 20.2426 25.6823 20.2964 25.5747L20.6195 23.6904H21.2117L21.3732 22.6675H20.8348L20.9425 22.0215H19.8658C19.8658 22.0215 19.2197 25.5747 19.2197 26.0053C19.2197 26.6514 19.5966 26.9206 20.0811 26.9206C20.4041 26.9206 20.6733 26.8129 20.781 26.759Z" fill="white"/>
<path d="M21.1592 25.0369C21.1592 26.5443 22.1821 26.9211 23.0434 26.9211C23.851 26.9211 24.174 26.7596 24.174 26.7596L24.3893 25.7367C24.3893 25.7367 23.7971 26.0059 23.2588 26.0059C22.0744 26.0059 22.2897 25.1445 22.2897 25.1445H24.497C24.497 25.1445 24.6585 24.4447 24.6585 24.1755C24.6585 23.4756 24.2817 22.6142 23.0973 22.6142C21.9667 22.5066 21.1592 23.691 21.1592 25.0369ZM23.0434 23.4756C23.6356 23.4756 23.528 24.1755 23.528 24.2293H22.3436C22.3436 24.1755 22.4512 23.4756 23.0434 23.4756Z" fill="white"/>
<path d="M29.8809 26.7592L30.0962 25.5748C30.0962 25.5748 29.5579 25.844 29.181 25.844C28.4273 25.844 28.1043 25.2518 28.1043 24.6058C28.1043 23.3137 28.7503 22.6138 29.504 22.6138C30.0424 22.6138 30.4731 22.9368 30.4731 22.9368L30.6346 21.8063C30.6346 21.8063 29.9886 21.5371 29.3964 21.5371C28.1581 21.5371 26.9199 22.6138 26.9199 24.6596C26.9199 26.0055 27.566 26.9207 28.858 26.9207C29.2887 26.9207 29.8809 26.7592 29.8809 26.7592Z" fill="white"/>
<path d="M14.8602 22.5059C14.1065 22.5059 13.5682 22.7212 13.5682 22.7212L13.4066 23.6364C13.4066 23.6364 13.8912 23.4211 14.591 23.4211C14.9679 23.4211 15.2909 23.4749 15.2909 23.7979C15.2909 24.0133 15.2371 24.0671 15.2371 24.0671C15.2371 24.0671 14.9141 24.0671 14.7525 24.0671C13.8373 24.0671 12.8145 24.444 12.8145 25.6822C12.8145 26.6512 13.4605 26.8666 13.8373 26.8666C14.591 26.8666 14.9141 26.382 14.9679 26.382L14.9141 26.8127H15.8831L16.3138 23.8518C16.3138 22.5597 15.2371 22.5059 14.8602 22.5059ZM15.0756 24.9285C15.0756 25.09 14.9679 25.9514 14.3219 25.9514C13.9988 25.9514 13.8912 25.6822 13.8912 25.5207C13.8912 25.2515 14.0527 24.8746 14.8602 24.8746C15.0217 24.9285 15.0756 24.9285 15.0756 24.9285Z" fill="white"/>
<path d="M17.3378 26.8677C17.607 26.8677 18.9529 26.9215 18.9529 25.4679C18.9529 24.122 17.6609 24.3912 17.6609 23.8529C17.6609 23.5837 17.8762 23.476 18.253 23.476C18.4146 23.476 19.0068 23.5298 19.0068 23.5298L19.1683 22.5608C19.1683 22.5608 18.7914 22.4531 18.1454 22.4531C17.3378 22.4531 16.5303 22.7761 16.5303 23.8529C16.5303 25.0911 17.8762 24.9834 17.8762 25.4679C17.8762 25.791 17.4993 25.8448 17.2302 25.8448C16.7456 25.8448 16.2611 25.6833 16.2611 25.6833L16.0996 26.6523C16.1534 26.76 16.4226 26.8677 17.3378 26.8677Z" fill="white"/>
<path d="M38.8177 21.6465L38.6023 23.1001C38.6023 23.1001 38.1716 22.5617 37.5794 22.5617C36.6104 22.5617 35.749 23.7461 35.749 25.1458C35.749 26.0072 36.1797 26.9224 37.0949 26.9224C37.741 26.9224 38.1178 26.4917 38.1178 26.4917L38.064 26.8686H39.1407L39.9482 21.7003L38.8177 21.6465ZM38.3331 24.4998C38.3331 25.092 38.064 25.8457 37.4718 25.8457C37.0949 25.8457 36.8796 25.5227 36.8796 24.9843C36.8796 24.1229 37.2564 23.5846 37.741 23.5846C38.1178 23.5846 38.3331 23.8538 38.3331 24.4998Z" fill="white"/>
<path d="M8.99163 26.8147L9.63766 22.9385L9.74534 26.8147H10.499L11.8988 22.9385L11.3066 26.8147H12.4371L13.2985 21.6465H11.5219L10.4452 24.8228L10.3914 21.6465H8.83013L7.96875 26.8147H8.99163Z" fill="white"/>
<path d="M25.6805 26.8144C26.0035 25.0379 26.0573 23.5843 26.811 23.8535C26.9187 23.1536 27.0802 22.8844 27.1879 22.6152C27.1879 22.6152 27.1341 22.6152 26.9725 22.6152C26.488 22.6152 26.1112 23.2613 26.1112 23.2613L26.2188 22.6691H25.196L24.4961 26.8683H25.6805V26.8144Z" fill="white"/>
<path d="M32.3553 22.5059C31.6016 22.5059 31.0633 22.7212 31.0633 22.7212L30.9018 23.6364C30.9018 23.6364 31.3863 23.4211 32.0862 23.4211C32.463 23.4211 32.786 23.4749 32.786 23.7979C32.786 24.0133 32.7322 24.0671 32.7322 24.0671C32.7322 24.0671 32.4092 24.0671 32.2477 24.0671C31.3325 24.0671 30.3096 24.444 30.3096 25.6822C30.3096 26.6512 30.9556 26.8666 31.3325 26.8666C32.0862 26.8666 32.4092 26.382 32.463 26.382L32.4092 26.8127H33.3782L33.8089 23.8518C33.8627 22.5597 32.7322 22.5059 32.3553 22.5059ZM32.6245 24.9285C32.6245 25.09 32.5168 25.9514 31.8708 25.9514C31.5478 25.9514 31.4401 25.6822 31.4401 25.5207C31.4401 25.2515 31.6016 24.8746 32.4092 24.8746C32.5707 24.9285 32.5707 24.9285 32.6245 24.9285Z" fill="white"/>
<path d="M34.7264 26.8154C35.0494 25.0388 35.1032 23.5853 35.8569 23.8544C35.9646 23.1546 36.1261 22.8854 36.2338 22.6162C36.2338 22.6162 36.18 22.6162 36.0184 22.6162C35.5339 22.6162 35.1571 23.2622 35.1571 23.2622L35.2647 22.67H34.2419L33.542 26.8693H34.7264V26.8154Z" fill="white"/>
<path d="M19.1123 26.0053C19.1123 26.6514 19.4892 26.9206 19.9737 26.9206C20.3505 26.9206 20.6735 26.8129 20.7812 26.759L20.9427 25.8438C20.8889 25.8438 20.7812 25.8977 20.6735 25.8977C20.2967 25.8977 20.2429 25.6823 20.2967 25.5747L20.6197 23.6904H21.2119L21.3734 22.6675H20.8351L20.9427 22.0215" fill="#DCE5E5"/>
<path d="M21.6963 25.0369C21.6963 26.5443 22.1808 26.9211 23.0422 26.9211C23.8497 26.9211 24.1727 26.7596 24.1727 26.7596L24.3881 25.7367C24.3881 25.7367 23.7959 26.0059 23.2575 26.0059C22.0731 26.0059 22.2885 25.1445 22.2885 25.1445H24.4958C24.4958 25.1445 24.6573 24.4447 24.6573 24.1755C24.6573 23.4756 24.2804 22.6142 23.096 22.6142C21.9655 22.5066 21.6963 23.691 21.6963 25.0369ZM23.0422 23.4756C23.6344 23.4756 23.7421 24.1755 23.7421 24.2293H22.3423C22.3423 24.1755 22.45 23.4756 23.0422 23.4756Z" fill="#DCE5E5"/>
<path d="M29.8796 26.7592L30.095 25.5748C30.095 25.5748 29.5566 25.844 29.1798 25.844C28.4261 25.844 28.1031 25.2518 28.1031 24.6058C28.1031 23.3137 28.7491 22.6138 29.5028 22.6138C30.0412 22.6138 30.4718 22.9368 30.4718 22.9368L30.6334 21.8063C30.6334 21.8063 29.9873 21.5371 29.3951 21.5371C28.1569 21.5371 27.457 22.6138 27.457 24.6596C27.457 26.0055 27.5647 26.9207 28.8568 26.9207C29.2875 26.9207 29.8796 26.7592 29.8796 26.7592Z" fill="#DCE5E5"/>
<path d="M13.4047 23.692C13.4047 23.692 13.8892 23.4766 14.5891 23.4766C14.9659 23.4766 15.289 23.5304 15.289 23.8535C15.289 24.0688 15.2351 24.1226 15.2351 24.1226C15.2351 24.1226 14.9121 24.1226 14.7506 24.1226C13.8354 24.1226 12.8125 24.4995 12.8125 25.7377C12.8125 26.7068 13.4585 26.9221 13.8354 26.9221C14.5891 26.9221 14.9121 26.4376 14.9659 26.4376L14.9121 26.8683H15.8811L16.3118 23.9073C16.3118 22.6691 15.2351 22.6152 14.8044 22.6152M15.612 24.9302C15.612 25.0917 14.9659 25.9531 14.3199 25.9531C13.9969 25.9531 13.8892 25.6839 13.8892 25.5224C13.8892 25.2532 14.0507 24.8763 14.8583 24.8763C15.0198 24.9302 15.612 24.9302 15.612 24.9302Z" fill="#DCE5E5"/>
<path d="M16.1514 26.76C16.1514 26.76 16.4744 26.8677 17.3896 26.8677C17.6588 26.8677 19.0047 26.9215 19.0047 25.4679C19.0047 24.122 17.7126 24.3912 17.7126 23.8529C17.7126 23.5837 17.928 23.476 18.3048 23.476C18.4663 23.476 19.0585 23.5298 19.0585 23.5298L19.22 22.5608C19.22 22.5608 18.8432 22.4531 18.1971 22.4531C17.3896 22.4531 17.1204 22.7761 17.1204 23.8529C17.1204 25.0911 17.928 24.9834 17.928 25.4679C17.928 25.791 17.5511 25.8448 17.2819 25.8448" fill="#DCE5E5"/>
<path d="M38.6021 23.098C38.6021 23.098 38.1714 22.5596 37.5792 22.5596C36.6101 22.5596 36.2871 23.744 36.2871 25.1437C36.2871 26.0051 36.1794 26.9203 37.0946 26.9203C37.7407 26.9203 38.1175 26.4896 38.1175 26.4896L38.0637 26.8665H39.1404L39.948 21.6982M38.5482 24.4977C38.5482 25.0899 38.0637 25.8436 37.4715 25.8436C37.0946 25.8436 36.8793 25.5206 36.8793 24.9822C36.8793 24.1209 37.2562 23.5825 37.7407 23.5825C38.1175 23.5825 38.5482 23.8517 38.5482 24.4977Z" fill="#DCE5E5"/>
<path d="M8.99163 26.8147L9.63766 22.9385L9.74534 26.8147H10.499L11.8988 22.9385L11.3066 26.8147H12.4371L13.2985 21.6465H11.9526L10.4452 24.8228L10.3914 21.6465H9.79917L7.96875 26.8147H8.99163Z" fill="#DCE5E5"/>
<path d="M24.5518 26.8154H25.6823C26.0053 25.0388 26.0592 23.5853 26.8129 23.8544C26.9205 23.1546 27.082 22.8854 27.1897 22.6162C27.1897 22.6162 27.1359 22.6162 26.9744 22.6162C26.4899 22.6162 26.113 23.2622 26.113 23.2622L26.2207 22.67" fill="#DCE5E5"/>
<path d="M30.9047 23.6929C30.9047 23.6929 31.3892 23.4776 32.0891 23.4776C32.4659 23.4776 32.789 23.5314 32.789 23.8544C32.789 24.0698 32.7351 24.1236 32.7351 24.1236C32.7351 24.1236 32.4121 24.1236 32.2506 24.1236C31.3354 24.1236 30.3125 24.5005 30.3125 25.7387C30.3125 26.7077 30.9585 26.9231 31.3354 26.9231C32.0891 26.9231 32.4121 26.4386 32.4659 26.4386L32.4121 26.8693H33.3812L33.8118 23.9083C33.8118 22.67 32.7351 22.6162 32.3044 22.6162M33.112 24.9312C33.112 25.0927 32.4659 25.954 31.8199 25.954C31.4969 25.954 31.3892 25.6849 31.3892 25.5234C31.3892 25.2542 31.5507 24.8773 32.3583 24.8773C32.5736 24.9312 33.112 24.9312 33.112 24.9312Z" fill="#DCE5E5"/>
<path d="M33.5938 26.8154H34.7243C35.0473 25.0388 35.1012 23.5853 35.8549 23.8544C35.9625 23.1546 36.124 22.8854 36.2317 22.6162C36.2317 22.6162 36.1779 22.6162 36.0164 22.6162C35.5318 22.6162 35.155 23.2622 35.155 23.2622L35.2627 22.67" fill="#DCE5E5"/>
</g>
<defs>
<clipPath id="clip0_253_24773">
<rect width="48" height="48" fill="white"/>
</clipPath>
</defs>
</svg>
