<svg width="19" height="22" viewBox="0 0 19 22" fill="none" xmlns="http://www.w3.org/2000/svg">
<path d="M9.5 11.6972C6.27564 11.6972 3.6514 9.07296 3.6514 5.8486C3.6514 2.62424 6.27564 0 9.5 0C12.7244 0 15.3486 2.62424 15.3486 5.8486C15.3486 9.07296 12.7244 11.6972 9.5 11.6972ZM9.5 1.52572C7.11987 1.52572 5.17712 3.46847 5.17712 5.8486C5.17712 8.22872 7.11987 10.1715 9.5 10.1715C11.8801 10.1715 13.8229 8.22872 13.8229 5.8486C13.8229 3.46847 11.8801 1.52572 9.5 1.52572Z" fill="#A89E9E"/>
<path d="M18.2374 21.8687C17.8204 21.8687 17.4746 21.5228 17.4746 21.1058C17.4746 17.5967 13.8942 14.7486 9.50016 14.7486C5.10608 14.7486 1.52572 17.5967 1.52572 21.1058C1.52572 21.5228 1.17989 21.8687 0.762861 21.8687C0.34583 21.8687 0 21.5228 0 21.1058C0 16.7626 4.26184 13.2229 9.50016 13.2229C14.7385 13.2229 19.0003 16.7626 19.0003 21.1058C19.0003 21.5228 18.6545 21.8687 18.2374 21.8687Z" fill="#A89E9E"/>
</svg>
