<svg width="48" height="48" viewBox="0 0 48 48" fill="none" xmlns="http://www.w3.org/2000/svg">
<g clip-path="url(#clip0_253_25008)">
<circle cx="24" cy="24" r="24" fill="#F2F1F1"/>
<g clip-path="url(#clip1_253_25008)">
<path d="M22.4165 20.9111H20.5303V32.9055H22.4165V20.9111Z" fill="#FEC93E"/>
<path d="M22.7391 22.87H20.2062C20.0195 22.87 19.8682 22.7186 19.8682 22.5319V21.3838H23.0771V22.5319C23.0771 22.7186 22.9258 22.87 22.7391 22.87Z" fill="#F7A738"/>
<path d="M23.0771 32.4608H19.8682V31.3127C19.8682 31.126 20.0195 30.9746 20.2062 30.9746H22.7391C22.9258 30.9746 23.0771 31.126 23.0771 31.3127V32.4608Z" fill="#F7A738"/>
<path d="M27.4702 20.9111H25.584V32.9055H27.4702V20.9111Z" fill="#FEC93E"/>
<path d="M27.7938 22.87H25.2609C25.0742 22.87 24.9229 22.7186 24.9229 22.5319V21.3838H28.1318V22.5319C28.1318 22.7186 27.9805 22.87 27.7938 22.87Z" fill="#F7A738"/>
<path d="M28.1318 32.4608H24.9229V31.3127C24.9229 31.126 25.0742 30.9746 25.2609 30.9746H27.7938C27.9805 30.9746 28.1318 31.126 28.1318 31.3127V32.4608Z" fill="#F7A738"/>
<path d="M32.5239 20.9111H30.6377V32.9055H32.5239V20.9111Z" fill="#FEC93E"/>
<path d="M32.8475 22.87H30.3146C30.1279 22.87 29.9766 22.7186 29.9766 22.5319V21.3838H33.1855V22.5319C33.1855 22.7186 33.0342 22.87 32.8475 22.87Z" fill="#F7A738"/>
<path d="M33.1855 32.4608H29.9766V31.3127C29.9766 31.126 30.1279 30.9746 30.3146 30.9746H32.8475C33.0342 30.9746 33.1855 31.126 33.1855 31.3127V32.4608Z" fill="#F7A738"/>
<path d="M17.3618 20.9111H15.4756V32.9055H17.3618V20.9111Z" fill="#FEC93E"/>
<path d="M17.6854 22.87H15.1525C14.9658 22.87 14.8145 22.7186 14.8145 22.5319V21.3838H18.0234V22.5319C18.0234 22.7186 17.8721 22.87 17.6854 22.87Z" fill="#F7A738"/>
<path d="M18.0234 32.4608H14.8145V31.3127C14.8145 31.126 14.9658 30.9746 15.1525 30.9746H17.6854C17.8721 30.9746 18.0234 31.126 18.0234 31.3127V32.4608Z" fill="#F7A738"/>
<path d="M34.5519 21.3842H13.4486C13.2661 21.3842 13.1182 21.2362 13.1182 21.0537V19.642C13.1182 19.4595 13.2661 19.3115 13.4486 19.3115H34.5519C34.7344 19.3115 34.8823 19.4595 34.8823 19.642V21.0537C34.8824 21.2362 34.7344 21.3842 34.5519 21.3842Z" fill="#FEC93E"/>
<path d="M34.5517 19.3115H32.2705V21.3842H34.5517C34.7343 21.3842 34.8822 21.2363 34.8822 21.0538V19.642C34.8822 19.4595 34.7343 19.3115 34.5517 19.3115Z" fill="#EFB635"/>
<path d="M35.0878 33.8987H12.9121V32.9663C12.9121 32.6872 13.1384 32.4609 13.4175 32.4609H34.5824C34.8616 32.4609 35.0878 32.6872 35.0878 32.9663V33.8987H35.0878Z" fill="#FEC93E"/>
<path d="M34.5829 32.4609H32.4766V33.8987H35.0882V32.9663C35.0883 32.6872 34.862 32.4609 34.5829 32.4609Z" fill="#EFB635"/>
<path d="M35.8263 35.3362H12.1736C12.0777 35.3362 12 35.2584 12 35.1626V34.4038C12 34.1247 12.2263 33.8984 12.5054 33.8984H35.4946C35.7737 33.8984 36 34.1247 36 34.4038V35.1626C36 35.2585 35.9222 35.3362 35.8263 35.3362Z" fill="#F7A738"/>
<path d="M35.4946 33.8984H33.4004V35.3362H35.8264C35.9223 35.3362 36 35.2584 36 35.1625V34.4038C36 34.1247 35.7738 33.8984 35.4946 33.8984Z" fill="#E8932E"/>
<path d="M24.0131 12.7052L12.1354 18.9358C12.0696 18.9704 12.0283 19.0386 12.0283 19.1129V19.751C12.0283 19.8614 12.1179 19.9509 12.2283 19.9509H35.7726C35.8831 19.9509 35.9726 19.8614 35.9726 19.751V19.1112C35.9726 19.0378 35.9323 18.9702 35.8677 18.9353L24.3513 12.7073C24.246 12.6504 24.1192 12.6496 24.0131 12.7052Z" fill="#F7A738"/>
<path d="M35.8671 18.9353L24.3507 12.7074C24.2454 12.6504 24.1186 12.6496 24.0125 12.7052L21.9531 13.7855L33.354 19.951H35.772C35.8825 19.951 35.972 19.8614 35.972 19.7509V19.1112C35.972 19.0378 35.9317 18.9702 35.8671 18.9353Z" fill="#E8932E"/>
</g>
</g>
<defs>
<clipPath id="clip0_253_25008">
<rect width="48" height="48" fill="white"/>
</clipPath>
<clipPath id="clip1_253_25008">
<rect width="24" height="24" fill="white" transform="translate(12 12)"/>
</clipPath>
</defs>
</svg>
