<svg width="22" height="22" viewBox="0 0 22 22" fill="none" xmlns="http://www.w3.org/2000/svg">
<path d="M17.1395 9.72093C16.72 9.72093 16.3721 9.37302 16.3721 8.95349V6.90698C16.3721 3.68372 15.4614 1.53488 11 1.53488C6.5386 1.53488 5.62791 3.68372 5.62791 6.90698V8.95349C5.62791 9.37302 5.28 9.72093 4.86047 9.72093C4.44093 9.72093 4.09302 9.37302 4.09302 8.95349V6.90698C4.09302 3.93953 4.8093 0 11 0C17.1907 0 17.907 3.93953 17.907 6.90698V8.95349C17.907 9.37302 17.5591 9.72093 17.1395 9.72093Z" fill="#A89E9E"/>
<path d="M16.1163 22H5.88372C1.37116 22 0 20.6288 0 16.1163V14.0698C0 9.55721 1.37116 8.18605 5.88372 8.18605H16.1163C20.6288 8.18605 22 9.55721 22 14.0698V16.1163C22 20.6288 20.6288 22 16.1163 22ZM5.88372 9.72093C2.22047 9.72093 1.53488 10.4167 1.53488 14.0698V16.1163C1.53488 19.7693 2.22047 20.4651 5.88372 20.4651H16.1163C19.7795 20.4651 20.4651 19.7693 20.4651 16.1163V14.0698C20.4651 10.4167 19.7795 9.72093 16.1163 9.72093H5.88372Z" fill="#A89E9E"/>
<path d="M6.90698 16.1161C6.77395 16.1161 6.64093 16.0855 6.51813 16.0343C6.38511 15.9831 6.2828 15.9115 6.18047 15.8194C5.99629 15.625 5.88372 15.3692 5.88372 15.0929C5.88372 14.9599 5.9144 14.8268 5.96557 14.7041C6.01673 14.571 6.08838 14.4687 6.18047 14.3664C6.2828 14.2743 6.38511 14.2026 6.51813 14.1515C6.88651 13.9878 7.34697 14.0799 7.63348 14.3664C7.72557 14.4687 7.79722 14.5813 7.84839 14.7041C7.89955 14.8268 7.93023 14.9599 7.93023 15.0929C7.93023 15.3589 7.81767 15.625 7.63348 15.8194C7.43906 16.0036 7.17302 16.1161 6.90698 16.1161Z" fill="#A89E9E"/>
<path d="M11 16.1162C10.734 16.1162 10.4679 16.0036 10.2735 15.8194C10.0893 15.625 9.97674 15.3692 9.97674 15.0929C9.97674 14.9599 9.9972 14.8269 10.0586 14.7041C10.1098 14.5813 10.1814 14.4688 10.2735 14.3664C10.5088 14.1311 10.867 14.0185 11.1944 14.0901C11.266 14.1004 11.3274 14.1208 11.3888 14.1515C11.4502 14.172 11.5116 14.2027 11.573 14.2436C11.6242 14.2743 11.6753 14.3255 11.7265 14.3664C11.8186 14.4688 11.8902 14.5813 11.9414 14.7041C11.9926 14.8269 12.0233 14.9599 12.0233 15.0929C12.0233 15.3692 11.9107 15.625 11.7265 15.8194C11.6753 15.8604 11.6242 15.9013 11.573 15.9422C11.5116 15.9832 11.4502 16.0139 11.3888 16.0343C11.3274 16.065 11.266 16.0855 11.1944 16.0957C11.133 16.106 11.0614 16.1162 11 16.1162Z" fill="#A89E9E"/>
<path d="M15.093 16.1162C14.8167 16.1162 14.5609 16.0036 14.3665 15.8194C14.2744 15.7171 14.2028 15.6046 14.1516 15.4818C14.1005 15.359 14.0698 15.226 14.0698 15.0929C14.0698 14.8269 14.1823 14.5609 14.3665 14.3664C14.4177 14.3255 14.4688 14.2846 14.52 14.2436C14.5814 14.2027 14.6428 14.172 14.7042 14.1515C14.7656 14.1208 14.827 14.1004 14.8884 14.0901C15.226 14.0185 15.5739 14.1311 15.8195 14.3664C16.0037 14.5609 16.1163 14.8167 16.1163 15.0929C16.1163 15.226 16.0856 15.359 16.0344 15.4818C15.9833 15.6148 15.9116 15.7171 15.8195 15.8194C15.6251 16.0036 15.3591 16.1162 15.093 16.1162Z" fill="#A89E9E"/>
</svg>
