<svg width="18" height="16" viewBox="0 0 18 16" fill="none" xmlns="http://www.w3.org/2000/svg">
<path d="M17.3727 5.4414H0.62793C0.284662 5.4414 0 5.15674 0 4.81347C0 4.47021 0.284662 4.18554 0.62793 4.18554H17.3727C17.716 4.18554 18.0007 4.47021 18.0007 4.81347C18.0007 5.15674 17.716 5.4414 17.3727 5.4414Z" fill="#7E7171"/>
<path d="M5.65202 12.1396H3.97754C3.63427 12.1396 3.34961 11.855 3.34961 11.5117C3.34961 11.1685 3.63427 10.8838 3.97754 10.8838H5.65202C5.99529 10.8838 6.27995 11.1685 6.27995 11.5117C6.27995 11.855 5.99529 12.1396 5.65202 12.1396Z" fill="#7E7171"/>
<path d="M11.0941 12.1396H7.74512C7.40185 12.1396 7.11719 11.855 7.11719 11.5117C7.11719 11.1685 7.40185 10.8838 7.74512 10.8838H11.0941C11.4373 10.8838 11.722 11.1685 11.722 11.5117C11.722 11.855 11.4373 12.1396 11.0941 12.1396Z" fill="#7E7171"/>
<path d="M13.6554 15.4889H4.34527C1.01306 15.4889 0 14.4842 0 11.1855V4.30341C0 1.00469 1.01306 0 4.34527 0H13.647C16.9792 0 17.9923 1.00469 17.9923 4.30341V11.1772C18.0007 14.4842 16.9876 15.4889 13.6554 15.4889ZM4.34527 1.25586C1.71634 1.25586 1.25586 1.70797 1.25586 4.30341V11.1772C1.25586 13.7726 1.71634 14.2247 4.34527 14.2247H13.647C16.2759 14.2247 16.7364 13.7726 16.7364 11.1772V4.30341C16.7364 1.70797 16.2759 1.25586 13.647 1.25586H4.34527Z" fill="#7E7171"/>
</svg>
