<svg width="48" height="48" viewBox="0 0 48 48" fill="none" xmlns="http://www.w3.org/2000/svg">
<g clip-path="url(#clip0_253_24996)">
<circle cx="24" cy="24" r="24" fill="#F2F1F1"/>
<path d="M30.7532 19.1672C30.7871 18.892 30.8048 18.6118 30.8048 18.3275C30.8048 15.9375 28.8673 14 26.4773 14H19.2452C18.7903 14 18.4019 14.3285 18.3264 14.7771L15.6616 30.616C15.566 31.1843 16.0041 31.7023 16.5804 31.7023H19.2253C19.6803 31.7023 20.076 31.374 20.1514 30.9254C20.1514 30.9254 20.1558 30.8991 20.1638 30.8517H20.1638L19.7952 33.0426C19.711 33.5435 20.0971 34 20.6051 34H22.919C23.32 34 23.6623 33.7104 23.7288 33.315L24.3862 29.408C24.4995 28.7345 25.0826 28.2413 25.7655 28.2413H26.3734C29.6754 28.2413 32.3521 25.5646 32.3521 22.2627C32.3521 20.985 31.7205 19.8555 30.7532 19.1672Z" fill="#002987"/>
<path d="M30.7528 19.167C30.3389 22.5334 27.4698 25.14 23.9916 25.14H21.9734C21.5179 25.14 21.1245 25.4434 21.0011 25.8724L19.7948 33.0423C19.7105 33.5432 20.0967 33.9998 20.6046 33.9998H22.9185C23.3195 33.9998 23.6619 33.7102 23.7283 33.3148L24.3857 29.4078C24.499 28.7343 25.0821 28.2411 25.7651 28.2411H26.3729C29.6749 28.2411 32.3516 25.5644 32.3516 22.2625C32.3516 20.9848 31.7201 19.8554 30.7528 19.167Z" fill="#0085CC"/>
<path d="M21.9733 25.1401H23.9915C27.4697 25.1401 30.3389 22.5334 30.7527 19.1671C30.132 18.7255 29.3736 18.4648 28.5538 18.4648H23.2862C22.6865 18.4648 22.1745 18.8979 22.0749 19.4893L21.001 25.8725C21.1244 25.4435 21.5178 25.1401 21.9733 25.1401Z" fill="#00186A"/>
</g>
<defs>
<clipPath id="clip0_253_24996">
<rect width="48" height="48" fill="white"/>
</clipPath>
</defs>
</svg>
