<svg width="13" height="18" viewBox="0 0 13 18" fill="none" xmlns="http://www.w3.org/2000/svg">
<path d="M6.38922 8.76386C6.36386 8.76386 6.34696 8.76386 6.32161 8.76386C6.27935 8.75541 6.22019 8.75541 6.16949 8.76386C3.71865 8.6878 1.86784 6.76094 1.86784 4.38616C1.86784 1.96912 3.83696 0 6.254 0C8.67103 0 10.6402 1.96912 10.6402 4.38616C10.6317 6.76094 8.77245 8.6878 6.41457 8.76386C6.40612 8.76386 6.39767 8.76386 6.38922 8.76386ZM6.254 1.26768C4.53841 1.26768 3.13552 2.67057 3.13552 4.38616C3.13552 6.07639 4.4539 7.43703 6.13568 7.49619C6.17794 7.48774 6.29625 7.48774 6.40612 7.49619C8.06255 7.42013 9.36403 6.05949 9.37248 4.38616C9.37248 2.67057 7.96958 1.26768 6.254 1.26768Z" fill="#7E7171"/>
<path d="M6.39754 18.0003C4.74111 18.0003 3.07623 17.5778 1.817 16.7327C0.642289 15.9551 0 14.8903 0 13.7325C0 12.5747 0.642289 11.5014 1.817 10.7154C4.35235 9.03364 8.45962 9.03364 10.9781 10.7154C12.1443 11.4929 12.7951 12.5578 12.7951 13.7156C12.7951 14.8734 12.1528 15.9467 10.9781 16.7327C9.71039 17.5778 8.05396 18.0003 6.39754 18.0003ZM2.51845 11.7803C1.70714 12.3211 1.26768 13.0141 1.26768 13.7409C1.26768 14.4593 1.71559 15.1523 2.51845 15.6847C4.62279 17.0961 8.17228 17.0961 10.2766 15.6847C11.0879 15.1438 11.5274 14.4508 11.5274 13.724C11.5274 13.0057 11.0795 12.3127 10.2766 11.7803C8.17228 10.3774 4.62279 10.3774 2.51845 11.7803Z" fill="#7E7171"/>
</svg>
