<svg width="6" height="12" viewBox="0 0 6 12" fill="none" xmlns="http://www.w3.org/2000/svg">
<path d="M0.517386 12.0002C0.385876 12.0002 0.254367 11.9518 0.150544 11.848C-0.0501812 11.6472 -0.0501812 11.315 0.150544 11.1143L4.66339 6.60143C4.99563 6.26919 4.99563 5.72931 4.66339 5.39708L0.150544 0.884228C-0.0501812 0.683503 -0.0501812 0.351269 0.150544 0.150544C0.351269 -0.0501812 0.683503 -0.0501812 0.884227 0.150544L5.39708 4.66339C5.75008 5.01639 5.9508 5.49398 5.9508 5.99925C5.9508 6.50453 5.757 6.98211 5.39708 7.33511L0.884227 11.848C0.780404 11.9449 0.648895 12.0002 0.517386 12.0002Z" fill="#0B0A0A"/>
</svg>
