<svg width="18" height="18" viewBox="0 0 18 18" fill="none" xmlns="http://www.w3.org/2000/svg">
<path d="M8.14799 16.296C3.65197 16.296 0 12.644 0 8.14799C0 3.65197 3.65197 0 8.14799 0C12.644 0 16.296 3.65197 16.296 8.14799C16.296 12.644 12.644 16.296 8.14799 16.296ZM8.14799 1.25354C4.34559 1.25354 1.25354 4.34559 1.25354 8.14799C1.25354 11.9504 4.34559 15.0424 8.14799 15.0424C11.9504 15.0424 15.0424 11.9504 15.0424 8.14799C15.0424 4.34559 11.9504 1.25354 8.14799 1.25354Z" fill="#7E7171"/>
<path d="M15.8032 18.0005C15.7363 18.0005 15.6694 17.9921 15.6109 17.9837C15.2182 17.9336 14.5078 17.6662 14.1067 16.4711C13.8978 15.8444 13.973 15.2176 14.3156 14.7413C14.6583 14.2649 15.2349 13.9975 15.8951 13.9975C16.7475 13.9975 17.416 14.3234 17.7169 14.9C18.0177 15.4767 17.9342 16.2121 17.4578 16.9224C16.8645 17.8166 16.221 18.0005 15.8032 18.0005ZM15.3017 16.0784C15.4438 16.5129 15.6444 16.7302 15.7781 16.7469C15.9118 16.7636 16.1625 16.6049 16.4216 16.2288C16.6639 15.8694 16.6806 15.6104 16.6221 15.4934C16.5636 15.3764 16.3296 15.251 15.8951 15.251C15.636 15.251 15.4438 15.3346 15.3352 15.4767C15.2349 15.6187 15.2182 15.836 15.3017 16.0784Z" fill="#7E7171"/>
</svg>
