<svg width="18" height="18" viewBox="0 0 18 18" fill="none" xmlns="http://www.w3.org/2000/svg">
<path d="M5.65137 17.2722C5.41694 17.2722 5.17413 17.2136 4.95644 17.0964C4.47922 16.8452 4.1862 16.3429 4.1862 15.807V14.6182C1.65773 14.3587 0 12.4999 0 9.83752V4.81413C0 1.93402 1.93402 0 4.81413 0H13.1865C16.0666 0 18.0007 1.93402 18.0007 4.81413V9.83752C18.0007 12.7176 16.0666 14.6516 13.1865 14.6516H10.0301L6.46347 17.0295C6.22067 17.1886 5.93603 17.2722 5.65137 17.2722ZM4.81413 1.24748C2.65405 1.24748 1.25586 2.64567 1.25586 4.80575V9.82924C1.25586 11.9893 2.65405 13.3875 4.81413 13.3875C5.1574 13.3875 5.44206 13.6722 5.44206 14.0154V15.7988C5.44206 15.9076 5.50904 15.9578 5.5509 15.9829C5.59277 16.008 5.6765 16.0332 5.76859 15.9745L9.49432 13.4964C9.59479 13.4294 9.72036 13.3875 9.84595 13.3875H13.1949C15.355 13.3875 16.7532 11.9893 16.7532 9.82924V4.80575C16.7532 2.64567 15.355 1.24748 13.1949 1.24748H4.81413Z" fill="#7E7171"/>
<path d="M9.00148 8.7243C8.65821 8.7243 8.37355 8.43964 8.37355 8.09637V7.92058C8.37355 6.94938 9.08519 6.47215 9.35311 6.28795C9.66289 6.07864 9.76335 5.93632 9.76335 5.71864C9.76335 5.30002 9.4201 4.95672 9.00148 4.95672C8.58286 4.95672 8.23962 5.30002 8.23962 5.71864C8.23962 6.06191 7.95495 6.34657 7.61169 6.34657C7.26842 6.34657 6.98376 6.06191 6.98376 5.71864C6.98376 4.60511 7.88795 3.70086 9.00148 3.70086C10.115 3.70086 11.0192 4.60511 11.0192 5.71864C11.0192 6.67309 10.316 7.1503 10.0564 7.32612C9.72989 7.54381 9.62941 7.68616 9.62941 7.92058V8.09637C9.62941 8.44801 9.34475 8.7243 9.00148 8.7243Z" fill="#7E7171"/>
<path d="M9.00098 10.8092C8.64934 10.8092 8.37305 10.5246 8.37305 10.1813C8.37305 9.83802 8.65771 9.55336 9.00098 9.55336C9.34425 9.55336 9.62891 9.83802 9.62891 10.1813C9.62891 10.5246 9.35262 10.8092 9.00098 10.8092Z" fill="#7E7171"/>
</svg>
