<svg width="10" height="10" viewBox="0 0 10 10" fill="none" xmlns="http://www.w3.org/2000/svg">
<path d="M0.375 10H8.875C9.08 10 9.25 9.83 9.25 9.625C9.25 9.42 9.08 9.25 8.875 9.25H0.375C0.17 9.25 0 9.42 0 9.625C0 9.83 0.17 10 0.375 10Z" fill="#774000"/>
<path d="M1.12527 7.74973C1.22027 7.74973 1.31527 7.71473 1.39027 7.63973L8.39027 0.639727C8.53527 0.494727 8.53527 0.254727 8.39027 0.109727C8.24527 -0.0352734 8.00527 -0.0352734 7.86027 0.109727L0.860274 7.10973C0.715274 7.25473 0.715274 7.49473 0.860274 7.63973C0.935274 7.71473 1.03027 7.74973 1.12527 7.74973Z" fill="#774000"/>
<path d="M8.125 5.885C8.33 5.885 8.5 5.715 8.5 5.51V0.375C8.5 0.17 8.33 0 8.125 0H2.99C2.785 0 2.615 0.17 2.615 0.375C2.615 0.58 2.785 0.75 2.99 0.75H7.75V5.51C7.75 5.715 7.92 5.885 8.125 5.885Z" fill="#774000"/>
</svg>
