<svg width="48" height="48" viewBox="0 0 48 48" fill="none" xmlns="http://www.w3.org/2000/svg">
<g clip-path="url(#clip0_253_24865)">
<circle cx="24" cy="24" r="24" fill="#F2F1F1"/>
<g clip-path="url(#clip1_253_24865)">
<path d="M20.2666 28.0225L21.6888 20.0225H23.911L22.5333 28.0225H20.2666Z" fill="#3C58BF"/>
<path d="M20.2666 28.0225L22.0888 20.0225H23.911L22.5333 28.0225H20.2666Z" fill="#293688"/>
<path d="M30.5773 20.1114C30.1329 19.9336 29.4218 19.7559 28.5329 19.7559C26.3107 19.7559 24.7107 20.867 24.7107 22.467C24.7107 23.667 25.8218 24.2892 26.7107 24.6892C27.5996 25.0892 27.8662 25.3559 27.8662 25.7114C27.8662 26.2447 27.1551 26.5114 26.5329 26.5114C25.644 26.5114 25.1551 26.3781 24.3996 26.067L24.0885 25.9336L23.7773 27.7559C24.3107 27.9781 25.2885 28.2003 26.3107 28.2003C28.6662 28.2003 30.2218 27.0892 30.2218 25.4003C30.2218 24.467 29.644 23.7559 28.3107 23.1781C27.5107 22.7781 27.0218 22.5559 27.0218 22.1559C27.0218 21.8003 27.4218 21.4447 28.3107 21.4447C29.0662 21.4447 29.5996 21.5781 29.9996 21.7559L30.2218 21.8447L30.5773 20.1114Z" fill="#3C58BF"/>
<path d="M30.5773 20.1114C30.1329 19.9336 29.4218 19.7559 28.5329 19.7559C26.3107 19.7559 25.1107 20.867 25.1107 22.467C25.1107 23.667 25.8218 24.2892 26.7107 24.6892C27.5996 25.0892 27.8662 25.3559 27.8662 25.7114C27.8662 26.2447 27.1551 26.5114 26.5329 26.5114C25.644 26.5114 25.1551 26.3781 24.3996 26.067L24.0885 25.9336L23.7773 27.7559C24.3107 27.9781 25.2885 28.2003 26.3107 28.2003C28.6662 28.2003 30.2218 27.0892 30.2218 25.4003C30.2218 24.467 29.644 23.7559 28.3107 23.1781C27.5107 22.7781 27.0218 22.5559 27.0218 22.1559C27.0218 21.8003 27.4218 21.4447 28.3107 21.4447C29.0662 21.4447 29.5996 21.5781 29.9996 21.7559L30.2218 21.8447L30.5773 20.1114Z" fill="#293688"/>
<path d="M34.4 20.0225C33.8667 20.0225 33.4667 20.0669 33.2445 20.6002L29.9111 28.0225H32.3111L32.7556 26.6891H35.6L35.8667 28.0225H38L36.1334 20.0225H34.4ZM33.3778 25.3558C33.5111 24.9558 34.2667 23.0002 34.2667 23.0002C34.2667 23.0002 34.4445 22.5114 34.5778 22.2002L34.7111 22.9558C34.7111 22.9558 35.1556 24.9558 35.2445 25.4002H33.3778V25.3558Z" fill="#3C58BF"/>
<path d="M34.9334 20.0225C34.4 20.0225 34 20.0669 33.7778 20.6002L29.9111 28.0225H32.3111L32.7556 26.6891H35.6L35.8667 28.0225H38L36.1334 20.0225H34.9334ZM33.3778 25.3558C33.5556 24.9113 34.2667 23.0002 34.2667 23.0002C34.2667 23.0002 34.4445 22.5114 34.5778 22.2002L34.7111 22.9558C34.7111 22.9558 35.1556 24.9558 35.2445 25.4002H33.3778V25.3558Z" fill="#293688"/>
<path d="M16.1781 25.622L15.9558 24.4664C15.5558 23.1331 14.2669 21.6664 12.8447 20.9553L14.8447 28.0664H17.2447L20.8447 20.0664H18.4447L16.1781 25.622Z" fill="#3C58BF"/>
<path d="M16.1781 25.622L15.9558 24.4664C15.5558 23.1331 14.2669 21.6664 12.8447 20.9553L14.8447 28.0664H17.2447L20.8447 20.0664H18.8892L16.1781 25.622Z" fill="#293688"/>
<path d="M10 20.0225L10.4 20.1114C13.2444 20.778 15.2 22.4669 15.9556 24.4669L15.1556 20.6891C15.0222 20.1558 14.6222 20.0225 14.1333 20.0225H10Z" fill="#FFBC00"/>
<path d="M10 20.0225C12.8444 20.6891 15.2 22.4225 15.9556 24.4225L15.2 21.2669C15.0667 20.7336 14.6222 20.4225 14.1333 20.4225L10 20.0225Z" fill="#F7981D"/>
<path d="M10 20.0225C12.8444 20.6891 15.2 22.4225 15.9556 24.4225L15.4222 22.6891C15.2889 22.1558 15.1111 21.6225 14.4889 21.4002L10 20.0225Z" fill="#ED7C00"/>
<path d="M18.3998 25.3556L16.8887 23.8445L16.1776 25.5334L15.9998 24.4222C15.5998 23.0889 14.3109 21.6222 12.8887 20.9111L14.8887 28.0222H17.2887L18.3998 25.3556Z" fill="#051244"/>
<path d="M22.5333 28.022L20.6222 26.0664L20.2666 28.022H22.5333Z" fill="#051244"/>
<path d="M27.644 25.2666C27.8218 25.4444 27.9107 25.5777 27.8662 25.7555C27.8662 26.2888 27.1551 26.5555 26.5329 26.5555C25.644 26.5555 25.1551 26.4222 24.3996 26.111L24.0885 25.9777L23.7773 27.7999C24.3107 28.0222 25.2885 28.2444 26.3107 28.2444C27.7329 28.2444 28.8885 27.8444 29.5551 27.1333L27.644 25.2666Z" fill="#051244"/>
<path d="M30.2217 28.0224H32.3106L32.755 26.6891H35.5995L35.8661 28.0224H37.9995L37.2439 24.778L34.5772 22.2002L34.7106 22.9113C34.7106 22.9113 35.155 24.9113 35.2439 25.3558H33.3772C33.555 24.9113 34.2661 23.0002 34.2661 23.0002C34.2661 23.0002 34.4439 22.5113 34.5772 22.2002" fill="#051244"/>
</g>
</g>
<defs>
<clipPath id="clip0_253_24865">
<rect width="48" height="48" fill="white"/>
</clipPath>
<clipPath id="clip1_253_24865">
<rect width="28" height="28" fill="white" transform="translate(10 10)"/>
</clipPath>
</defs>
</svg>
